<svg width="162" height="83" viewBox="0 0 162 83" fill="none" xmlns="http://www.w3.org/2000/svg">
<rect width="162" height="83" fill="#E5E5E5"/>
<g id="Rider Section">
<path d="M-3183 -5550C-3183 -5551.1 -3182.1 -5552 -3181 -5552H4012C4013.1 -5552 4014 -5551.1 4014 -5550V1600C4014 1601.1 4013.1 1602 4012 1602H-3181C-3182.1 1602 -3183 1601.1 -3183 1600V-5550Z" fill="#D3D3D3"/>
<path d="M-3181 -5551H4012V-5553H-3181V-5551ZM4013 -5550V1600H4015V-5550H4013ZM4012 1601H-3181V1603H4012V1601ZM-3182 1600V-5550H-3184V1600H-3182ZM-3181 1601C-3181.55 1601 -3182 1600.55 -3182 1600H-3184C-3184 1601.66 -3182.66 1603 -3181 1603V1601ZM4013 1600C4013 1600.55 4012.55 1601 4012 1601V1603C4013.66 1603 4015 1601.66 4015 1600H4013ZM4012 -5551C4012.55 -5551 4013 -5550.55 4013 -5550H4015C4015 -5551.66 4013.66 -5553 4012 -5553V-5551ZM-3181 -5553C-3182.66 -5553 -3184 -5551.66 -3184 -5550H-3182C-3182 -5550.55 -3181.55 -5551 -3181 -5551V-5553Z" fill="black" fill-opacity="0.1"/>
<g id="Refer a friend" clip-path="url(#clip0_502_10)">
<rect width="430" height="932" transform="translate(-136 -196)" fill="white"/>
<g id="Frame 34416" clip-path="url(#clip1_502_10)">
<rect width="430" height="466" transform="translate(-136 -196)" fill="#367367"/>
<g id="Group 30387">
<g id="Group 30385">
<circle id="Ellipse 29" cx="118.607" cy="37.6071" r="30.7366" stroke="#F8E71D" stroke-width="2.16964"/>
<ellipse id="Ellipse 30" cx="99.0809" cy="37.6071" rx="3.61607" ry="4.33929" fill="#F8E71D"/>
<circle id="Ellipse 32" cx="108.482" cy="50.625" r="7.23214" fill="#F8E71D"/>
<ellipse id="Ellipse 31" cx="125.116" cy="37.6071" rx="3.61607" ry="4.33929" fill="#F8E71D"/>
</g>
<g id="Group 30386">
<circle id="Ellipse 25" cx="44.8371" cy="37.6071" r="30.7366" stroke="#F8E71D" stroke-width="2.16964"/>
<ellipse id="Ellipse 26" cx="36.8817" cy="36.1606" rx="3.61607" ry="4.33929" fill="#F8E71D"/>
<ellipse id="Ellipse 27" cx="62.9169" cy="36.1606" rx="3.61607" ry="4.33929" fill="#F8E71D"/>
<path id="Ellipse 28" d="M66.5324 43.3929C66.5324 45.4823 66.1208 47.5513 65.3212 49.4817C64.5216 51.412 63.3497 53.166 61.8722 54.6435C60.3948 56.1209 58.6408 57.2929 56.7104 58.0925C54.78 58.8921 52.7111 59.3036 50.6217 59.3036C48.5322 59.3036 46.4633 58.8921 44.5329 58.0925C42.6025 57.2929 40.8485 56.1209 39.3711 54.6435C37.8936 53.166 36.7217 51.412 35.9221 49.4817C35.1225 47.5513 34.7109 45.4823 34.7109 43.3929L50.6217 43.3929H66.5324Z" fill="#F8E71D"/>
</g>
<circle id="Ellipse 34" cx="2.16964" cy="52.7946" r="2.16964" fill="#F8E71D"/>
<circle id="Ellipse 35" cx="93.2946" cy="2.16964" r="2.16964" fill="#F8E71D"/>
<circle id="Ellipse 37" cx="92.5714" cy="80.9999" r="1.44643" fill="#F8E71D"/>
<circle id="Ellipse 38" cx="102.696" cy="73.768" r="1.44643" fill="black"/>
<circle id="Ellipse 36" cx="159.83" cy="33.9912" r="2.16964" fill="#F8E71D"/>
<path id="Star 1" d="M9.40123 4.33936L10.2706 7.08606L13.0173 7.95543L10.2706 8.82479L9.40123 11.5715L8.53187 8.82479L5.78516 7.95543L8.53187 7.08606L9.40123 4.33936Z" fill="#E7E7E7"/>
<path id="Star 2" d="M82.4448 4.33936L83.488 7.63541L86.784 8.67864L83.488 9.72188L82.4448 13.0179L81.4015 9.72188L78.1055 8.67864L81.4015 7.63541L82.4448 4.33936Z" fill="#E7E7E7"/>
<path id="Star 3" d="M147.537 75.2144L148.233 77.4117L150.43 78.1072L148.233 78.8027L147.537 81.0001L146.842 78.8027L144.645 78.1072L146.842 77.4117L147.537 75.2144Z" fill="#E7E7E7"/>
</g>
</g>
</g>
</g>
<defs>
<clipPath id="clip0_502_10">
<rect width="430" height="932" fill="white" transform="translate(-136 -196)"/>
</clipPath>
<clipPath id="clip1_502_10">
<rect width="430" height="466" fill="white" transform="translate(-136 -196)"/>
</clipPath>
</defs>
</svg>
