<svg width="36" height="36" viewBox="0 0 36 36" fill="none" xmlns="http://www.w3.org/2000/svg">
<g id="add_photo_alternate">
<mask id="mask0_1158_4027" style="mask-type:alpha" maskUnits="userSpaceOnUse" x="0" y="0" width="36" height="36">
<rect id="Bounding box" width="36" height="36" fill="#D9D9D9"/>
</mask>
<g mask="url(#mask0_1158_4027)">
<path id="add_photo_alternate_2" d="M7.5 31.5C6.675 31.5 5.96875 31.2063 5.38125 30.6188C4.79375 30.0312 4.5 29.325 4.5 28.5V7.5C4.5 6.675 4.79375 5.96875 5.38125 5.38125C5.96875 4.79375 6.675 4.5 7.5 4.5H21V7.5H7.5V28.5H28.5V15H31.5V28.5C31.5 29.325 31.2063 30.0312 30.6188 30.6188C30.0312 31.2063 29.325 31.5 28.5 31.5H7.5ZM25.5 13.5V10.5H22.5V7.5H25.5V4.5H28.5V7.5H31.5V10.5H28.5V13.5H25.5ZM9 25.5H27L21.375 18L16.875 24L13.5 19.5L9 25.5Z" fill="#98A2B3"/>
</g>
</g>
</svg>
