<svg width="18" height="18" viewBox="0 0 18 18" fill="none" xmlns="http://www.w3.org/2000/svg">
<g id="airport_shuttle">
<mask id="mask0_790_1223" style="mask-type:alpha" maskUnits="userSpaceOnUse" x="0" y="0" width="18" height="18">
<rect id="Bounding box" width="18" height="18" fill="#D9D9D9"/>
</mask>
<g mask="url(#mask0_790_1223)">
<path id="airport_shuttle_2" d="M4.5 14.25C3.875 14.25 3.34375 14.0312 2.90625 13.5938C2.46875 13.1562 2.25 12.625 2.25 12H0.75V5.25C0.75 4.8375 0.896875 4.48438 1.19063 4.19063C1.48438 3.89688 1.8375 3.75 2.25 3.75H12.75L17.25 8.25V12H15.75C15.75 12.625 15.5312 13.1562 15.0938 13.5938C14.6562 14.0312 14.125 14.25 13.5 14.25C12.875 14.25 12.3438 14.0312 11.9062 13.5938C11.4688 13.1562 11.25 12.625 11.25 12H6.75C6.75 12.625 6.53125 13.1562 6.09375 13.5938C5.65625 14.0312 5.125 14.25 4.5 14.25ZM11.25 7.5H14.25L12 5.25H11.25V7.5ZM6.75 7.5H9.75V5.25H6.75V7.5ZM2.25 7.5H5.25V5.25H2.25V7.5ZM4.5 12.9375C4.7625 12.9375 4.98438 12.8469 5.16563 12.6656C5.34688 12.4844 5.4375 12.2625 5.4375 12C5.4375 11.7375 5.34688 11.5156 5.16563 11.3344C4.98438 11.1531 4.7625 11.0625 4.5 11.0625C4.2375 11.0625 4.01563 11.1531 3.83438 11.3344C3.65313 11.5156 3.5625 11.7375 3.5625 12C3.5625 12.2625 3.65313 12.4844 3.83438 12.6656C4.01563 12.8469 4.2375 12.9375 4.5 12.9375ZM13.5 12.9375C13.7625 12.9375 13.9844 12.8469 14.1656 12.6656C14.3469 12.4844 14.4375 12.2625 14.4375 12C14.4375 11.7375 14.3469 11.5156 14.1656 11.3344C13.9844 11.1531 13.7625 11.0625 13.5 11.0625C13.2375 11.0625 13.0156 11.1531 12.8344 11.3344C12.6531 11.5156 12.5625 11.7375 12.5625 12C12.5625 12.2625 12.6531 12.4844 12.8344 12.6656C13.0156 12.8469 13.2375 12.9375 13.5 12.9375ZM2.25 10.5H2.85C3.0625 10.275 3.30625 10.0938 3.58125 9.95625C3.85625 9.81875 4.1625 9.75 4.5 9.75C4.8375 9.75 5.14375 9.81875 5.41875 9.95625C5.69375 10.0938 5.9375 10.275 6.15 10.5H11.85C12.0625 10.275 12.3063 10.0938 12.5813 9.95625C12.8563 9.81875 13.1625 9.75 13.5 9.75C13.8375 9.75 14.1438 9.81875 14.4188 9.95625C14.6938 10.0938 14.9375 10.275 15.15 10.5H15.75V9H2.25V10.5Z" fill="#1C1B1F"/>
</g>
</g>
</svg>
