<svg width="36" height="37" viewBox="0 0 36 37" fill="none" xmlns="http://www.w3.org/2000/svg">
<g clip-path="url(#clip0_772_4295)">
<mask id="mask0_772_4295" style="mask-type:luminance" maskUnits="userSpaceOnUse" x="0" y="0" width="36" height="37">
<path d="M36 18.5C36 8.55887 27.9411 0.5 18 0.5C8.05887 0.5 0 8.55887 0 18.5C0 28.4411 8.05887 36.5 18 36.5C27.9411 36.5 36 28.4411 36 18.5Z" fill="white"/>
</mask>
<g mask="url(#mask0_772_4295)">
<path d="M36 0.5H0V36.5H36V0.5Z" fill="#0A0A0A"/>
<path d="M-3.60416 30.2424C-1.53729 39.9663 8.02102 46.1735 17.7449 44.1067C27.4688 42.0398 33.676 32.4815 31.6092 22.7576C29.5423 13.0337 19.984 6.82648 10.2601 8.89335C0.536196 10.9602 -5.67104 20.5185 -3.60416 30.2424Z" fill="#FCE600"/>
<path d="M13.1875 24.1861C13.3259 25.171 13.9803 26.0422 15.0068 26.6081C16.0332 27.174 17.3476 27.3883 18.6607 27.2037C19.9739 27.0192 21.1783 26.4509 22.009 25.624C22.8397 24.7971 23.2286 23.7792 23.0902 22.7944" fill="black"/>
<path d="M12.1363 20.2946C12.0594 19.7477 11.6646 19.3511 11.2544 19.4087C10.8442 19.4664 10.574 19.9565 10.6509 20.5034C10.7278 21.0503 11.1226 21.4469 11.5328 21.3893C11.9429 21.3316 12.2132 20.8415 12.1363 20.2946Z" fill="black"/>
<path d="M24.0191 18.6245C23.9422 18.0776 23.5474 17.681 23.1372 17.7386C22.727 17.7963 22.4568 18.2864 22.5337 18.8333C22.6106 19.3802 23.0054 19.7768 23.4156 19.7192C23.8258 19.6615 24.096 19.1714 24.0191 18.6245Z" fill="black"/>
</g>
</g>
<defs>
<clipPath id="clip0_772_4295">
<rect width="36" height="36" fill="white" transform="translate(0 0.5)"/>
</clipPath>
</defs>
</svg>
