<svg fill="none" height="118" viewBox="0 0 118 118" width="118" xmlns="http://www.w3.org/2000/svg">
    <circle cx="59" cy="59" fill="#F3F5F8" r="59" />
    <path
        d="M80.444 56.6173H61.3825V37.5558C61.3825 36.2405 60.315 35.1731 58.9998 35.1731C57.6845 35.1731 56.6171 36.2405 56.6171 37.5558V56.6173H37.5555C36.2403 56.6173 35.1729 57.6848 35.1729 59C35.1729 60.3153 36.2403 61.3827 37.5555 61.3827H56.6171V80.4442C56.6171 81.7619 57.6845 82.8269 58.9998 82.8269C60.315 82.8269 61.3825 81.7619 61.3825 80.4442V61.3827H80.444C81.7616 61.3827 82.8267 60.3153 82.8267 59C82.8267 57.6848 81.7616 56.6173 80.444 56.6173Z"
        fill="#333333" />
</svg>
