<svg width="20" height="20" viewBox="0 0 20 20" fill="none" xmlns="http://www.w3.org/2000/svg">
<g id="assistant_navigation">
<mask id="mask0_874_929" style="mask-type:alpha" maskUnits="userSpaceOnUse" x="0" y="0" width="20" height="20">
<rect id="Bounding box" width="20" height="20" fill="#D9D9D9"/>
</mask>
<g mask="url(#mask0_874_929)">
<path id="assistant_navigation_2" d="M6.87691 13.8298L9.99868 12.4131L13.1204 13.8298L13.3368 13.6134L9.99868 5.54457L6.66055 13.6134L6.87691 13.8298ZM10.0001 17.9163C8.90513 17.9163 7.87593 17.7085 6.91249 17.293C5.94903 16.8774 5.11096 16.3135 4.39828 15.6011C3.68559 14.8887 3.12137 14.051 2.70564 13.088C2.2899 12.125 2.08203 11.096 2.08203 10.001C2.08203 8.90611 2.28981 7.87691 2.70536 6.91347C3.12092 5.95001 3.68488 5.11194 4.39724 4.39926C5.10961 3.68656 5.94732 3.12235 6.91034 2.70661C7.87336 2.29088 8.90234 2.08301 9.99728 2.08301C11.0922 2.08301 12.1214 2.29079 13.0849 2.70634C14.0483 3.1219 14.8864 3.68586 15.5991 4.39822C16.3118 5.11059 16.876 5.94829 17.2917 6.91132C17.7075 7.87434 17.9153 8.90331 17.9153 9.99826C17.9153 11.0932 17.7075 12.1224 17.292 13.0858C16.8764 14.0493 16.3125 14.8874 15.6001 15.6C14.8877 16.3127 14.05 16.877 13.087 17.2927C12.124 17.7084 11.095 17.9163 10.0001 17.9163ZM9.99868 16.6663C11.8598 16.6663 13.4362 16.0205 14.7278 14.7288C16.0195 13.4372 16.6653 11.8608 16.6653 9.99965C16.6653 8.13854 16.0195 6.56215 14.7278 5.27049C13.4362 3.97882 11.8598 3.33299 9.99868 3.33299C8.13757 3.33299 6.56118 3.97882 5.26951 5.27049C3.97784 6.56215 3.33201 8.13854 3.33201 9.99965C3.33201 11.8608 3.97784 13.4372 5.26951 14.7288C6.56118 16.0205 8.13757 16.6663 9.99868 16.6663Z" fill="#F8E71D"/>
</g>
</g>
</svg>
