<svg width="20" height="20" viewBox="0 0 20 20" fill="none" xmlns="http://www.w3.org/2000/svg">
<g id="assistant_navigation">
<mask id="mask0_768_1619" style="mask-type:alpha" maskUnits="userSpaceOnUse" x="0" y="0" width="20" height="20">
<rect id="Bounding box" width="20" height="20" fill="#D9D9D9"/>
</mask>
<g mask="url(#mask0_768_1619)">
<path id="assistant_navigation_2" d="M6.87691 13.8301L9.99868 12.4134L13.1204 13.8301L13.3368 13.6137L9.99868 5.54488L6.66055 13.6137L6.87691 13.8301ZM10.0001 17.9166C8.90513 17.9166 7.87593 17.7088 6.91249 17.2933C5.94903 16.8777 5.11096 16.3138 4.39828 15.6014C3.68559 14.889 3.12137 14.0513 2.70564 13.0883C2.2899 12.1253 2.08203 11.0963 2.08203 10.0014C2.08203 8.90641 2.28981 7.87722 2.70536 6.91377C3.12092 5.95031 3.68488 5.11224 4.39724 4.39956C5.10961 3.68687 5.94732 3.12265 6.91034 2.70692C7.87336 2.29118 8.90234 2.08331 9.99728 2.08331C11.0922 2.08331 12.1214 2.29109 13.0849 2.70665C14.0483 3.1222 14.8864 3.68616 15.5991 4.39852C16.3118 5.1109 16.876 5.9486 17.2917 6.91163C17.7075 7.87464 17.9153 8.90362 17.9153 9.99856C17.9153 11.0935 17.7075 12.1227 17.292 13.0861C16.8764 14.0496 16.3125 14.8877 15.6001 15.6004C14.8877 16.3131 14.05 16.8773 13.087 17.293C12.124 17.7087 11.095 17.9166 10.0001 17.9166ZM9.99868 16.6666C11.8598 16.6666 13.4362 16.0208 14.7278 14.7291C16.0195 13.4375 16.6653 11.8611 16.6653 9.99996C16.6653 8.13885 16.0195 6.56246 14.7278 5.27079C13.4362 3.97913 11.8598 3.33329 9.99868 3.33329C8.13757 3.33329 6.56118 3.97913 5.26951 5.27079C3.97784 6.56246 3.33201 8.13885 3.33201 9.99996C3.33201 11.8611 3.97784 13.4375 5.26951 14.7291C6.56118 16.0208 8.13757 16.6666 9.99868 16.6666Z" fill="#F8E71D"/>
</g>
</g>
</svg>
