<svg width="18" height="19" viewBox="0 0 18 19" fill="none" xmlns="http://www.w3.org/2000/svg">
<g id="delete">
<mask id="mask0_788_768" style="mask-type:alpha" maskUnits="userSpaceOnUse" x="0" y="0" width="18" height="19">
<rect id="Bounding box" y="0.5" width="18" height="18" fill="#D9D9D9"/>
</mask>
<g mask="url(#mask0_788_768)">
<path id="delete_2" d="M5.25 16.25C4.8375 16.25 4.48438 16.1031 4.19062 15.8094C3.89687 15.5156 3.75 15.1625 3.75 14.75V5H3V3.5H6.75V2.75H11.25V3.5H15V5H14.25V14.75C14.25 15.1625 14.1031 15.5156 13.8094 15.8094C13.5156 16.1031 13.1625 16.25 12.75 16.25H5.25ZM12.75 5H5.25V14.75H12.75V5ZM6.75 13.25H8.25V6.5H6.75V13.25ZM9.75 13.25H11.25V6.5H9.75V13.25Z" fill="#1C1B1F"/>
</g>
</g>
</svg>
