<svg width="20" height="20" viewBox="0 0 20 20" fill="none" xmlns="http://www.w3.org/2000/svg">
<g id="help">
<mask id="mask0_1759_19285" style="mask-type:alpha" maskUnits="userSpaceOnUse" x="0" y="0" width="20" height="20">
<rect id="Bounding box" width="20" height="20" fill="#D9D9D9"/>
</mask>
<g mask="url(#mask0_1759_19285)">
<path id="help_2" d="M9.98951 14.6795C10.2275 14.6795 10.4284 14.5973 10.5924 14.433C10.7564 14.2687 10.8384 14.0676 10.8384 13.8297C10.8384 13.5917 10.7563 13.3908 10.592 13.2268C10.4277 13.0628 10.2266 12.9808 9.98862 12.9808C9.75067 12.9808 9.54971 13.0629 9.38572 13.2272C9.22172 13.3915 9.13972 13.5926 9.13972 13.8306C9.13972 14.0685 9.22187 14.2695 9.38616 14.4335C9.55045 14.5975 9.75157 14.6795 9.98951 14.6795ZM9.39932 11.6955H10.5724C10.5831 11.2853 10.6432 10.9575 10.7527 10.7123C10.8622 10.4672 11.1279 10.1421 11.5499 9.73719C11.9164 9.37074 12.1971 9.03233 12.3921 8.72196C12.5871 8.4116 12.6846 8.04508 12.6846 7.6224C12.6846 6.90514 12.4268 6.34485 11.9113 5.94153C11.3959 5.53822 10.7861 5.33657 10.082 5.33657C9.38651 5.33657 8.81093 5.5222 8.35526 5.89346C7.89961 6.26471 7.57456 6.70194 7.38012 7.20513L8.45059 7.63461C8.55209 7.3579 8.72571 7.08841 8.97143 6.82613C9.21716 6.56384 9.58202 6.43269 10.066 6.43269C10.5585 6.43269 10.9226 6.56758 11.1581 6.83736C11.3937 7.10712 11.5115 7.40387 11.5115 7.72759C11.5115 8.0107 11.4308 8.26978 11.2695 8.50482C11.1082 8.73986 10.9025 8.9669 10.6525 9.18592C10.1055 9.67951 9.75991 10.0732 9.61568 10.367C9.47144 10.6608 9.39932 11.1036 9.39932 11.6955ZM10.0001 17.9167C8.90513 17.9167 7.87593 17.7089 6.91249 17.2933C5.94903 16.8778 5.11096 16.3138 4.39828 15.6014C3.68559 14.8891 3.12137 14.0514 2.70564 13.0883C2.2899 12.1253 2.08203 11.0963 2.08203 10.0014C2.08203 8.90646 2.28981 7.87726 2.70536 6.91382C3.12092 5.95036 3.68488 5.11229 4.39724 4.39961C5.10961 3.68692 5.94732 3.1227 6.91034 2.70696C7.87336 2.29123 8.90234 2.08336 9.99728 2.08336C11.0922 2.08336 12.1214 2.29114 13.0849 2.70669C14.0483 3.12225 14.8864 3.68621 15.5991 4.39857C16.3118 5.11094 16.876 5.94864 17.2917 6.91167C17.7075 7.87469 17.9153 8.90367 17.9153 9.99861C17.9153 11.0936 17.7075 12.1227 17.292 13.0862C16.8764 14.0497 16.3125 14.8877 15.6001 15.6004C14.8877 16.3131 14.05 16.8773 13.087 17.293C12.124 17.7088 11.095 17.9167 10.0001 17.9167ZM9.99868 16.6667C11.8598 16.6667 13.4362 16.0208 14.7278 14.7292C16.0195 13.4375 16.6653 11.8611 16.6653 10C16.6653 8.13889 16.0195 6.56251 14.7278 5.27084C13.4362 3.97917 11.8598 3.33334 9.99868 3.33334C8.13757 3.33334 6.56118 3.97917 5.26951 5.27084C3.97784 6.56251 3.33201 8.13889 3.33201 10C3.33201 11.8611 3.97784 13.4375 5.26951 14.7292C6.56118 16.0208 8.13757 16.6667 9.99868 16.6667Z" fill="#F8E71D"/>
</g>
</g>
</svg>
