<svg width="20" height="20" viewBox="0 0 20 20" fill="none" xmlns="http://www.w3.org/2000/svg">
<g id="mark_unread_chat_alt">
<mask id="mask0_768_1689" style="mask-type:alpha" maskUnits="userSpaceOnUse" x="0" y="0" width="20" height="20">
<rect id="Bounding box" width="20" height="20" fill="#D9D9D9"/>
</mask>
<g mask="url(#mask0_768_1689)">
<path id="mark_unread_chat_alt_2" d="M5.20703 11.4583H11.457V10.2083H5.20703V11.4583ZM5.20703 8.9583H14.7903V7.70834H5.20703V8.9583ZM5.20703 6.4583H14.3496V6.40703C13.9906 6.30125 13.6675 6.14768 13.3801 5.9463C13.0927 5.74491 12.8416 5.49893 12.6269 5.20834H5.20703V6.4583ZM2.08203 17.532V3.58976C2.08203 3.16882 2.22786 2.81251 2.51953 2.52084C2.8112 2.22918 3.1675 2.08334 3.58845 2.08334H11.957C11.9122 2.29168 11.8884 2.49867 11.8857 2.70432C11.883 2.90999 11.8961 3.11966 11.925 3.33332H3.58845C3.52434 3.33332 3.46557 3.36003 3.41214 3.41345C3.35872 3.46688 3.33201 3.52565 3.33201 3.58976V14.4872L4.4987 13.3333H16.4089C16.473 13.3333 16.5318 13.3066 16.5852 13.2532C16.6386 13.1998 16.6653 13.141 16.6653 13.0769V6.76763C16.9047 6.71422 17.1271 6.64584 17.3328 6.56251C17.5385 6.47918 17.7326 6.36967 17.9153 6.23399V13.0769C17.9153 13.4978 17.7695 13.8541 17.4778 14.1458C17.1862 14.4375 16.8299 14.5833 16.4089 14.5833H5.03074L2.08203 17.532ZM3.33201 3.58976V13.9103V3.33332V3.58976ZM15.832 5.1923C15.1963 5.1923 14.6555 4.96928 14.2094 4.52324C13.7634 4.0772 13.5404 3.53634 13.5404 2.90066C13.5404 2.26497 13.7634 1.72411 14.2094 1.27807C14.6555 0.832031 15.1963 0.609009 15.832 0.609009C16.4677 0.609009 17.0086 0.832031 17.4546 1.27807C17.9006 1.72411 18.1237 2.26497 18.1237 2.90066C18.1237 3.53634 17.9006 4.0772 17.4546 4.52324C17.0086 4.96928 16.4677 5.1923 15.832 5.1923Z" fill="#F8E71D"/>
</g>
</g>
</svg>
