<svg width="18" height="19" viewBox="0 0 18 19" fill="none" xmlns="http://www.w3.org/2000/svg">
<g id="dark_mode">
<mask id="mask0_788_750" style="mask-type:alpha" maskUnits="userSpaceOnUse" x="0" y="0" width="18" height="19">
<rect id="Bounding box" y="0.5" width="18" height="18" fill="#D9D9D9"/>
</mask>
<g mask="url(#mask0_788_750)">
<path id="dark_mode_2" d="M9 16.25C7.125 16.25 5.53125 15.5938 4.21875 14.2812C2.90625 12.9688 2.25 11.375 2.25 9.5C2.25 7.625 2.90625 6.03125 4.21875 4.71875C5.53125 3.40625 7.125 2.75 9 2.75C9.175 2.75 9.34688 2.75625 9.51562 2.76875C9.68437 2.78125 9.85 2.8 10.0125 2.825C9.5 3.1875 9.09063 3.65938 8.78438 4.24063C8.47813 4.82188 8.325 5.45 8.325 6.125C8.325 7.25 8.71875 8.20625 9.50625 8.99375C10.2937 9.78125 11.25 10.175 12.375 10.175C13.0625 10.175 13.6937 10.0219 14.2687 9.71563C14.8438 9.40938 15.3125 9 15.675 8.4875C15.7 8.65 15.7188 8.81563 15.7313 8.98438C15.7438 9.15312 15.75 9.325 15.75 9.5C15.75 11.375 15.0938 12.9688 13.7812 14.2812C12.4688 15.5938 10.875 16.25 9 16.25ZM9 14.75C10.1 14.75 11.0875 14.4469 11.9625 13.8406C12.8375 13.2344 13.475 12.4438 13.875 11.4688C13.625 11.5312 13.375 11.5813 13.125 11.6187C12.875 11.6562 12.625 11.675 12.375 11.675C10.8375 11.675 9.52812 11.1344 8.44687 10.0531C7.36562 8.97188 6.825 7.6625 6.825 6.125C6.825 5.875 6.84375 5.625 6.88125 5.375C6.91875 5.125 6.96875 4.875 7.03125 4.625C6.05625 5.025 5.26562 5.6625 4.65938 6.5375C4.05313 7.4125 3.75 8.4 3.75 9.5C3.75 10.95 4.2625 12.1875 5.2875 13.2125C6.3125 14.2375 7.55 14.75 9 14.75Z" fill="#1C1B1F"/>
</g>
</g>
</svg>
