<svg width="20" height="20" viewBox="0 0 20 20" fill="none" xmlns="http://www.w3.org/2000/svg">
<g id="logout">
<mask id="mask0_772_1762" style="mask-type:alpha" maskUnits="userSpaceOnUse" x="0" y="0" width="20" height="20">
<rect id="Bounding box" width="20" height="20" fill="#D9D9D9"/>
</mask>
<g mask="url(#mask0_772_1762)">
<path id="logout_2" d="M4.42439 17.0833C4.00344 17.0833 3.64714 16.9375 3.35547 16.6458C3.0638 16.3541 2.91797 15.9978 2.91797 15.5769V4.4231C2.91797 4.00216 3.0638 3.64585 3.35547 3.35419C3.64714 3.06252 4.00344 2.91669 4.42439 2.91669H10.0093V4.16667H4.42439C4.36027 4.16667 4.3015 4.19338 4.24807 4.24679C4.19466 4.30022 4.16795 4.35899 4.16795 4.4231V15.5769C4.16795 15.641 4.19466 15.6998 4.24807 15.7532C4.3015 15.8066 4.36027 15.8333 4.42439 15.8333H10.0093V17.0833H4.42439ZM13.5269 13.5576L12.6616 12.6538L14.6904 10.625H7.58141V9.37502H14.6904L12.6616 7.34617L13.5269 6.44235L17.0846 10L13.5269 13.5576Z" fill="#FF4646"/>
</g>
</g>
</svg>
