<svg width="20" height="20" viewBox="0 0 20 20" fill="none" xmlns="http://www.w3.org/2000/svg">
<g id="assignment_ind">
<mask id="mask0_877_1048" style="mask-type:alpha" maskUnits="userSpaceOnUse" x="0" y="0" width="20" height="20">
<rect id="Bounding box" width="20" height="20" fill="#D9D9D9"/>
</mask>
<g mask="url(#mask0_877_1048)">
<path id="assignment_ind_2" d="M4.42439 17.0833C4.00344 17.0833 3.64714 16.9375 3.35547 16.6458C3.0638 16.3541 2.91797 15.9978 2.91797 15.5769V4.42308C2.91797 4.00214 3.0638 3.64583 3.35547 3.35417C3.64714 3.0625 4.00344 2.91667 4.42439 2.91667H8.13272C8.19895 2.44872 8.40568 2.05396 8.75291 1.73238C9.10011 1.41079 9.51624 1.25 10.0013 1.25C10.4863 1.25 10.9024 1.41079 11.2497 1.73238C11.5969 2.05396 11.8036 2.44872 11.8698 2.91667H15.5782C15.9991 2.91667 16.3554 3.0625 16.6471 3.35417C16.9388 3.64583 17.0846 4.00214 17.0846 4.42308V15.5769C17.0846 15.9978 16.9388 16.3541 16.6471 16.6458C16.3554 16.9375 15.9991 17.0833 15.5782 17.0833H4.42439ZM10.0013 3.62177C10.1818 3.62177 10.3311 3.56274 10.4492 3.44469C10.5673 3.32663 10.6263 3.17733 10.6263 2.99677C10.6263 2.81622 10.5673 2.66691 10.4492 2.54886C10.3311 2.4308 10.1818 2.37177 10.0013 2.37177C9.82073 2.37177 9.67142 2.4308 9.55336 2.54886C9.43531 2.66691 9.37628 2.81622 9.37628 2.99677C9.37628 3.17733 9.43531 3.32663 9.55336 3.44469C9.67142 3.56274 9.82073 3.62177 10.0013 3.62177ZM4.16795 15.0353C4.91795 14.2991 5.78948 13.7193 6.78253 13.2957C7.77559 12.8721 8.8485 12.6603 10.0013 12.6603C11.1541 12.6603 12.227 12.8721 13.22 13.2957C14.2131 13.7193 15.0846 14.2991 15.8346 15.0353V4.42308C15.8346 4.35897 15.8079 4.3002 15.7545 4.24677C15.7011 4.19336 15.6423 4.16665 15.5782 4.16665H4.42439C4.36027 4.16665 4.3015 4.19336 4.24807 4.24677C4.19466 4.3002 4.16795 4.35897 4.16795 4.42308V15.0353ZM10.0013 10.8654C10.7534 10.8654 11.3928 10.602 11.9195 10.0753C12.4462 9.54861 12.7096 8.90918 12.7096 8.15704C12.7096 7.40492 12.4462 6.7655 11.9195 6.23879C11.3928 5.71208 10.7534 5.44873 10.0013 5.44873C9.24914 5.44873 8.60973 5.71208 8.08303 6.23879C7.55632 6.7655 7.29297 7.40492 7.29297 8.15704C7.29297 8.90918 7.55632 9.54861 8.08303 10.0753C8.60973 10.602 9.24914 10.8654 10.0013 10.8654ZM5.36984 15.8333H14.6327V15.657C13.9746 15.0694 13.2526 14.6314 12.4668 14.3429C11.6811 14.0544 10.8592 13.9102 10.0013 13.9102C9.15406 13.9102 8.33621 14.0531 7.54774 14.3389C6.75927 14.6247 6.0333 15.0587 5.36984 15.641V15.8333ZM10.0013 9.6154C9.60064 9.6154 9.25742 9.4725 8.97161 9.18671C8.68582 8.90092 8.54293 8.5577 8.54293 8.15704C8.54293 7.7564 8.68582 7.41319 8.97161 7.1274C9.25742 6.84161 9.60064 6.69871 10.0013 6.69871C10.4019 6.69871 10.7451 6.84161 11.0309 7.1274C11.3167 7.41319 11.4596 7.7564 11.4596 8.15704C11.4596 8.5577 11.3167 8.90092 11.0309 9.18671C10.7451 9.4725 10.4019 9.6154 10.0013 9.6154Z" fill="#F8E71D"/>
</g>
</g>
</svg>
