<svg width="20" height="20" viewBox="0 0 20 20" fill="none" xmlns="http://www.w3.org/2000/svg">
<g id="directions_car">
<mask id="mask0_874_935" style="mask-type:alpha" maskUnits="userSpaceOnUse" x="0" y="0" width="20" height="20">
<rect id="Bounding box" width="20" height="20" fill="#D9D9D9"/>
</mask>
<g mask="url(#mask0_874_935)">
<path id="directions_car_2" d="M4.68074 15.4163V16.458C4.68074 16.6351 4.62084 16.7835 4.50105 16.9033C4.38127 17.0231 4.23284 17.083 4.05576 17.083H3.54297C3.36589 17.083 3.21745 17.0231 3.09766 16.9033C2.97786 16.7835 2.91797 16.6351 2.91797 16.458V10.0638L4.61991 5.20801C4.68186 5.01677 4.79564 4.8648 4.96124 4.75209C5.12684 4.63937 5.31113 4.58301 5.51411 4.58301H14.5205C14.7155 4.58301 14.8926 4.6403 15.0517 4.75488C15.2107 4.86947 15.3211 5.02051 15.3827 5.20801L17.0846 10.0638V16.458C17.0846 16.6351 17.0247 16.7835 16.9049 16.9033C16.7851 17.0231 16.6367 17.083 16.4596 17.083H15.9468C15.7697 17.083 15.6213 17.0231 15.5015 16.9033C15.3817 16.7835 15.3218 16.6351 15.3218 16.458V15.4163H4.68074ZM4.67434 8.8138H15.3282L14.2769 5.83299H5.72564L4.67434 8.8138ZM6.22111 13.2048C6.52434 13.2048 6.78145 13.0986 6.99245 12.8864C7.20346 12.6741 7.30897 12.4164 7.30897 12.1132C7.30897 11.8099 7.20284 11.5528 6.99057 11.3418C6.77831 11.1308 6.52057 11.0253 6.21734 11.0253C5.91412 11.0253 5.657 11.1314 5.44599 11.3437C5.23499 11.556 5.12949 11.8137 5.12949 12.1169C5.12949 12.4201 5.23562 12.6773 5.44789 12.8883C5.66015 13.0993 5.91789 13.2048 6.22111 13.2048ZM13.7852 13.2048C14.0884 13.2048 14.3456 13.0986 14.5566 12.8864C14.7676 12.6741 14.8731 12.4164 14.8731 12.1132C14.8731 11.8099 14.7669 11.5528 14.5547 11.3418C14.3424 11.1308 14.0847 11.0253 13.7814 11.0253C13.4782 11.0253 13.2211 11.1314 13.0101 11.3437C12.7991 11.556 12.6936 11.8137 12.6936 12.1169C12.6936 12.4201 12.7997 12.6773 13.012 12.8883C13.2243 13.0993 13.482 13.2048 13.7852 13.2048ZM4.16795 14.1663H15.8346V10.0638H4.16795V14.1663Z" fill="#F8E71D"/>
</g>
</g>
</svg>
