<svg width="20" height="20" viewBox="0 0 20 20" fill="none" xmlns="http://www.w3.org/2000/svg">
<g id="directions_car">
<mask id="mask0_768_1671" style="mask-type:alpha" maskUnits="userSpaceOnUse" x="0" y="0" width="20" height="20">
<rect id="Bounding box" width="20" height="20" fill="#D9D9D9"/>
</mask>
<g mask="url(#mask0_768_1671)">
<path id="directions_car_2" d="M4.68074 15.4166V16.4583C4.68074 16.6354 4.62084 16.7838 4.50105 16.9036C4.38127 17.0234 4.23284 17.0833 4.05576 17.0833H3.54297C3.36589 17.0833 3.21745 17.0234 3.09766 16.9036C2.97786 16.7838 2.91797 16.6354 2.91797 16.4583V10.0641L4.61991 5.20831C4.68186 5.01708 4.79564 4.86511 4.96124 4.7524C5.12684 4.63967 5.31113 4.58331 5.51411 4.58331H14.5205C14.7155 4.58331 14.8926 4.6406 15.0517 4.75519C15.2107 4.86977 15.3211 5.02081 15.3827 5.20831L17.0846 10.0641V16.4583C17.0846 16.6354 17.0247 16.7838 16.9049 16.9036C16.7851 17.0234 16.6367 17.0833 16.4596 17.0833H15.9468C15.7697 17.0833 15.6213 17.0234 15.5015 16.9036C15.3817 16.7838 15.3218 16.6354 15.3218 16.4583V15.4166H4.68074ZM4.67434 8.81411H15.3282L14.2769 5.83329H5.72564L4.67434 8.81411ZM6.22111 13.2051C6.52434 13.2051 6.78145 13.099 6.99245 12.8867C7.20346 12.6744 7.30897 12.4167 7.30897 12.1135C7.30897 11.8102 7.20284 11.5531 6.99057 11.3421C6.77831 11.1311 6.52057 11.0256 6.21734 11.0256C5.91412 11.0256 5.657 11.1317 5.44599 11.344C5.23499 11.5563 5.12949 11.814 5.12949 12.1172C5.12949 12.4205 5.23562 12.6776 5.44789 12.8886C5.66015 13.0996 5.91789 13.2051 6.22111 13.2051ZM13.7852 13.2051C14.0884 13.2051 14.3456 13.099 14.5566 12.8867C14.7676 12.6744 14.8731 12.4167 14.8731 12.1135C14.8731 11.8102 14.7669 11.5531 14.5547 11.3421C14.3424 11.1311 14.0847 11.0256 13.7814 11.0256C13.4782 11.0256 13.2211 11.1317 13.0101 11.344C12.7991 11.5563 12.6936 11.814 12.6936 12.1172C12.6936 12.4205 12.7997 12.6776 13.012 12.8886C13.2243 13.0996 13.482 13.2051 13.7852 13.2051ZM4.16795 14.1666H15.8346V10.0641H4.16795V14.1666Z" fill="#F8E71D"/>
</g>
</g>
</svg>
