<svg fill="none" height="53" viewBox="0 0 86 53" width="86" xmlns="http://www.w3.org/2000/svg">
    <path
        d="M19.3732 53H13.3543C11.7556 53 10.1568 52.9814 8.59567 52.9443C7.03453 52.9071 5.96243 52.8885 5.37935 52.8885C3.40441 52.9628 2.03136 52.6469 1.22258 51.9408C0.413797 51.2346 0.0188102 49.8966 0.0188102 47.9081V32.6511C0.0188102 31.8706 0.150472 31.2945 0.394987 30.9043C0.658312 30.514 1.18496 30.2539 1.97494 30.1052C2.27588 30.1052 2.67087 29.9937 3.17871 29.7893C3.68655 29.5849 4.19439 29.2503 4.70223 28.7858C5.21007 28.3212 5.64267 27.7265 6.01885 26.9832C6.37622 26.2398 6.56431 25.3478 6.56431 24.2886C6.56431 22.6532 6.1129 21.3895 5.19126 20.479C4.28843 19.5498 3.31037 19.0294 2.29469 18.8808C1.48591 18.7321 0.902828 18.5091 0.545458 18.1932C0.188089 17.8773 0 17.3198 0 16.5579V5.31487C0 3.40077 0.319751 2.04418 0.978063 1.22651C1.63638 0.408838 3.08466 0 5.34173 0H19.3356V53H19.3732ZM85.0163 0.687584C85.336 1.15217 85.5241 1.65393 85.5617 2.23002C85.5993 2.78752 85.4677 3.36361 85.1856 3.92111C84.9034 4.47861 84.4144 4.86887 83.7561 5.09187C83.0978 5.29629 82.5711 5.64937 82.1761 6.15112C81.7812 6.65287 81.5366 7.1918 81.4614 7.78647C81.3862 8.38114 81.5366 8.9758 81.894 9.53331C82.2514 10.1094 82.8721 10.5182 83.7561 10.797C84.4144 11.0757 84.941 11.5032 85.336 12.0607C85.731 12.6182 85.9567 13.2128 85.9943 13.8075C86.032 14.4022 85.8815 14.9783 85.5617 15.4986C85.242 16.0375 84.6965 16.3906 83.9818 16.6136C83.1166 16.818 82.4395 17.2269 81.9504 17.8401C81.4802 18.4348 81.2169 19.0666 81.1793 19.6985C81.1416 20.3303 81.3297 20.9807 81.7247 21.6126C82.1197 22.2444 82.7216 22.709 83.5304 22.9877C84.2639 23.2665 84.8094 23.6939 85.1667 24.2514C85.5241 24.8089 85.731 25.4222 85.7686 26.054C85.8063 26.6858 85.6746 27.2991 85.3925 27.8566C85.1103 28.4141 84.6589 28.8415 84.0758 29.1388C82.2514 29.9937 81.3109 31.0158 81.2357 32.2051C81.1604 33.413 81.8564 34.3608 83.3235 35.067C83.9818 35.3457 84.5084 35.7917 84.9034 36.3864C85.2984 36.9811 85.5241 37.6315 85.5617 38.3005C85.5993 38.9695 85.4677 39.5642 85.1856 40.1031C84.9034 40.6234 84.4144 40.9951 83.7749 41.2181C82.8909 41.4225 82.2326 41.8128 81.7435 42.3888C81.2733 42.9464 81.01 43.5596 80.9724 44.1914C80.9347 44.8233 81.1228 45.4551 81.5178 46.1055C81.9128 46.7374 82.5523 47.2763 83.4363 47.7037C84.0194 47.9825 84.4332 48.4285 84.6965 49.0231C84.9599 49.6178 85.0351 50.2125 84.9787 50.77C84.9034 51.3275 84.6965 51.8478 84.3768 52.3124C84.057 52.777 83.5868 53 83.0037 53H25.8246V0H83.662C84.2263 0 84.6965 0.222998 85.0163 0.687584ZM48.9032 18.825C48.7903 14.0863 46.458 11.6704 41.8686 11.5775C37.1852 11.689 34.8341 14.1048 34.8341 18.825V20.6834C35.041 25.2177 37.3921 27.5221 41.8686 27.6336C46.3452 27.5407 48.6775 25.2177 48.9032 20.6834V18.825ZM60.4142 10.4996C59.2481 10.2952 58.2324 11.1687 57.386 13.1199L44.5959 38.1332C44.2762 38.858 44.1257 39.3597 44.1257 39.6757C44.4455 40.4004 45.085 40.865 46.0442 41.0694C47.0035 41.1623 48.0191 40.4004 49.0724 38.7465L61.8625 13.7332C62.1823 13.0084 62.3327 12.4509 62.3327 12.0421C62.013 11.2244 61.3735 10.7041 60.4142 10.4996ZM71.6055 31.3317C71.4927 26.5929 69.1604 24.1771 64.571 24.0842C59.8876 24.1957 57.5365 26.6115 57.5365 31.3317V33.19C57.6493 37.52 59.9816 39.7314 64.571 39.8243C69.0475 39.7128 71.3798 37.5014 71.6055 33.19V31.3317ZM64.571 36.8881C62.9722 36.9996 62.2199 35.4015 62.3327 32.1122C62.2199 29.0273 62.9722 27.4849 64.571 27.4849C66.0569 27.392 66.7528 28.9344 66.64 32.1122C66.7528 35.4944 66.0569 37.0926 64.571 36.8881ZM41.8686 24.2328C40.2699 24.4372 39.5739 22.8948 39.7997 19.6055C39.5928 16.3163 40.2887 14.7181 41.8686 14.8296C43.3545 14.8296 44.1069 16.4278 44.1069 19.6055C44.1069 22.7833 43.3545 24.3443 41.8686 24.2328Z"
        fill="#2F2F2F" />
</svg>
