<svg width="18" height="19" viewBox="0 0 18 19" fill="none" xmlns="http://www.w3.org/2000/svg">
<g id="person">
<mask id="mask0_877_1012" style="mask-type:alpha" maskUnits="userSpaceOnUse" x="0" y="0" width="18" height="19">
<rect id="Bounding box" y="0.5" width="18" height="18" fill="#D9D9D9"/>
</mask>
<g mask="url(#mask0_877_1012)">
<path id="person_2" d="M9 9.5C8.175 9.5 7.46875 9.20625 6.88125 8.61875C6.29375 8.03125 6 7.325 6 6.5C6 5.675 6.29375 4.96875 6.88125 4.38125C7.46875 3.79375 8.175 3.5 9 3.5C9.825 3.5 10.5312 3.79375 11.1187 4.38125C11.7063 4.96875 12 5.675 12 6.5C12 7.325 11.7063 8.03125 11.1187 8.61875C10.5312 9.20625 9.825 9.5 9 9.5ZM3 15.5V13.4C3 12.975 3.10937 12.5844 3.32812 12.2281C3.54688 11.8719 3.8375 11.6 4.2 11.4125C4.975 11.025 5.7625 10.7344 6.5625 10.5406C7.3625 10.3469 8.175 10.25 9 10.25C9.825 10.25 10.6375 10.3469 11.4375 10.5406C12.2375 10.7344 13.025 11.025 13.8 11.4125C14.1625 11.6 14.4531 11.8719 14.6719 12.2281C14.8906 12.5844 15 12.975 15 13.4V15.5H3ZM4.5 14H13.5V13.4C13.5 13.2625 13.4656 13.1375 13.3969 13.025C13.3281 12.9125 13.2375 12.825 13.125 12.7625C12.45 12.425 11.7688 12.1719 11.0813 12.0031C10.3938 11.8344 9.7 11.75 9 11.75C8.3 11.75 7.60625 11.8344 6.91875 12.0031C6.23125 12.1719 5.55 12.425 4.875 12.7625C4.7625 12.825 4.67188 12.9125 4.60313 13.025C4.53438 13.1375 4.5 13.2625 4.5 13.4V14ZM9 8C9.4125 8 9.76563 7.85313 10.0594 7.55937C10.3531 7.26562 10.5 6.9125 10.5 6.5C10.5 6.0875 10.3531 5.73438 10.0594 5.44063C9.76563 5.14688 9.4125 5 9 5C8.5875 5 8.23438 5.14688 7.94063 5.44063C7.64687 5.73438 7.5 6.0875 7.5 6.5C7.5 6.9125 7.64687 7.26562 7.94063 7.55937C8.23438 7.85313 8.5875 8 9 8Z" fill="#1C1B1F"/>
</g>
</g>
</svg>
