<svg width="20" height="20" viewBox="0 0 20 20" fill="none" xmlns="http://www.w3.org/2000/svg">
<g id="supervisor_account">
<mask id="mask0_1754_20673" style="mask-type:alpha" maskUnits="userSpaceOnUse" x="0" y="0" width="20" height="20">
<rect id="Bounding box" width="20" height="20" fill="#D9D9D9"/>
</mask>
<g mask="url(#mask0_1754_20673)">
<path id="supervisor_account_2" d="M14.1174 11.9231C13.5981 11.9231 13.1558 11.7404 12.7904 11.375C12.4251 11.0096 12.2424 10.5673 12.2424 10.0481C12.2424 9.52885 12.4251 9.08655 12.7904 8.72118C13.1558 8.35579 13.5981 8.1731 14.1174 8.1731C14.6366 8.1731 15.0789 8.35579 15.4443 8.72118C15.8096 9.08655 15.9923 9.52885 15.9923 10.0481C15.9923 10.5673 15.8096 11.0096 15.4443 11.375C15.0789 11.7404 14.6366 11.9231 14.1174 11.9231ZM10.159 16.0897V15.1314C10.159 14.8355 10.2347 14.5638 10.3861 14.3163C10.5374 14.0688 10.7523 13.8907 11.0308 13.7821C11.5155 13.5791 12.017 13.4268 12.5354 13.3253C13.0537 13.2238 13.581 13.1731 14.1174 13.1731C14.6429 13.1731 15.165 13.2238 15.6838 13.3253C16.2025 13.4268 16.7092 13.5791 17.2039 13.7821C17.4824 13.8907 17.6973 14.0688 17.8486 14.3163C18 14.5638 18.0757 14.8355 18.0757 15.1314V16.0897H10.159ZM8.17183 9.7436C7.36976 9.7436 6.68314 9.45801 6.11196 8.88685C5.54079 8.31567 5.25521 7.62904 5.25521 6.82697C5.25521 6.02489 5.54079 5.33826 6.11196 4.7671C6.68314 4.19591 7.36976 3.91032 8.17183 3.91032C8.97392 3.91032 9.66054 4.19591 10.2317 4.7671C10.8029 5.33826 11.0885 6.02489 11.0885 6.82697C11.0885 7.62904 10.8029 8.31567 10.2317 8.88685C9.66054 9.45801 8.97392 9.7436 8.17183 9.7436ZM1.92188 16.0897V14.2372C1.92188 13.8209 2.03058 13.4382 2.24798 13.0892C2.4654 12.7402 2.76374 12.4776 3.14302 12.3013C3.92827 11.906 4.74332 11.6053 5.58817 11.3991C6.43301 11.1929 7.29424 11.0898 8.17183 11.0898C8.58315 11.0898 8.99447 11.1195 9.40579 11.1787C9.81711 11.238 10.2284 11.3099 10.6398 11.3943L9.57567 12.4744C9.3417 12.4183 9.10772 12.3818 8.87375 12.365C8.63978 12.3482 8.40581 12.3398 8.17183 12.3398C7.39299 12.3398 6.6275 12.429 5.87538 12.6074C5.12324 12.7858 4.40368 13.0556 3.71671 13.4167C3.55646 13.5022 3.42558 13.6141 3.32408 13.7524C3.22258 13.8908 3.17183 14.0524 3.17183 14.2372V14.8398H8.17183V16.0897H1.92188ZM8.17183 8.49364C8.63017 8.49364 9.02253 8.33044 9.34892 8.00405C9.67531 7.67767 9.8385 7.2853 9.8385 6.82697C9.8385 6.36864 9.67531 5.97628 9.34892 5.64989C9.02253 5.3235 8.63017 5.1603 8.17183 5.1603C7.7135 5.1603 7.32114 5.3235 6.99475 5.64989C6.66836 5.97628 6.50517 6.36864 6.50517 6.82697C6.50517 7.2853 6.66836 7.67767 6.99475 8.00405C7.32114 8.33044 7.7135 8.49364 8.17183 8.49364Z" fill="#F8E71D"/>
</g>
</g>
</svg>
