<svg width="18" height="18" viewBox="0 0 18 18" fill="none" xmlns="http://www.w3.org/2000/svg">
<g id="group_add">
<mask id="mask0_790_1214" style="mask-type:alpha" maskUnits="userSpaceOnUse" x="0" y="0" width="18" height="18">
<rect id="Bounding box" width="18" height="18" fill="#D9D9D9"/>
</mask>
<g mask="url(#mask0_790_1214)">
<path id="group_add_2" d="M9.375 8.9625C9.7375 8.5625 10.0156 8.10625 10.2094 7.59375C10.4031 7.08125 10.5 6.55 10.5 6C10.5 5.45 10.4031 4.91875 10.2094 4.40625C10.0156 3.89375 9.7375 3.4375 9.375 3.0375C10.125 3.1375 10.75 3.46875 11.25 4.03125C11.75 4.59375 12 5.25 12 6C12 6.75 11.75 7.40625 11.25 7.96875C10.75 8.53125 10.125 8.8625 9.375 8.9625ZM13.5 15V12.75C13.5 12.3 13.4 11.8719 13.2 11.4656C13 11.0594 12.7375 10.7 12.4125 10.3875C13.05 10.6125 13.6406 10.9031 14.1844 11.2594C14.7281 11.6156 15 12.1125 15 12.75V15H13.5ZM15 9.75V8.25H13.5V6.75H15V5.25H16.5V6.75H18V8.25H16.5V9.75H15ZM6 9C5.175 9 4.46875 8.70625 3.88125 8.11875C3.29375 7.53125 3 6.825 3 6C3 5.175 3.29375 4.46875 3.88125 3.88125C4.46875 3.29375 5.175 3 6 3C6.825 3 7.53125 3.29375 8.11875 3.88125C8.70625 4.46875 9 5.175 9 6C9 6.825 8.70625 7.53125 8.11875 8.11875C7.53125 8.70625 6.825 9 6 9ZM0 15V12.9C0 12.475 0.109375 12.0844 0.328125 11.7281C0.546875 11.3719 0.8375 11.1 1.2 10.9125C1.975 10.525 2.7625 10.2344 3.5625 10.0406C4.3625 9.84687 5.175 9.75 6 9.75C6.825 9.75 7.6375 9.84687 8.4375 10.0406C9.2375 10.2344 10.025 10.525 10.8 10.9125C11.1625 11.1 11.4531 11.3719 11.6719 11.7281C11.8906 12.0844 12 12.475 12 12.9V15H0ZM6 7.5C6.4125 7.5 6.76563 7.35313 7.05938 7.05937C7.35313 6.76562 7.5 6.4125 7.5 6C7.5 5.5875 7.35313 5.23438 7.05938 4.94063C6.76563 4.64688 6.4125 4.5 6 4.5C5.5875 4.5 5.23438 4.64688 4.94063 4.94063C4.64687 5.23438 4.5 5.5875 4.5 6C4.5 6.4125 4.64687 6.76562 4.94063 7.05937C5.23438 7.35313 5.5875 7.5 6 7.5ZM1.5 13.5H10.5V12.9C10.5 12.7625 10.4656 12.6375 10.3969 12.525C10.3281 12.4125 10.2375 12.325 10.125 12.2625C9.45 11.925 8.76875 11.6719 8.08125 11.5031C7.39375 11.3344 6.7 11.25 6 11.25C5.3 11.25 4.60625 11.3344 3.91875 11.5031C3.23125 11.6719 2.55 11.925 1.875 12.2625C1.7625 12.325 1.67188 12.4125 1.60313 12.525C1.53438 12.6375 1.5 12.7625 1.5 12.9V13.5Z" fill="#1C1B1F"/>
</g>
</g>
</svg>
