<svg fill="none" height="74" viewBox="0 0 72 74" width="72" xmlns="http://www.w3.org/2000/svg">
    <mask fill="black" height="74" id="path-1-outside-1_619_3" maskUnits="userSpaceOnUse"
        width="71" x="0.935547" y="0.157043">
        <rect fill="white" height="74" width="71" x="0.935547" y="0.157043" />
        <path
            d="M44.0166 32.5156L43.9445 32.4676L42.7594 34.0852L44.0166 32.5156ZM36.3691 46.0649L36.4172 45.8887L36.3531 46.0649C36.3611 46.0568 36.3611 46.0568 36.3691 46.0649ZM44.6893 49.9647C44.6893 48.5313 44.1687 45.8326 40.6853 43.7666C39.4121 43.0139 38.1469 42.5815 37.4822 42.3813H37.4742C37.4582 42.3813 37.4502 42.3733 37.4422 42.3733C37.3381 42.3412 37.226 42.3172 37.1139 42.2932C36.9057 42.2211 36.1209 41.9408 33.9348 40.9479C31.7967 39.9709 31.2842 38.5856 31.2361 37.6006C31.2041 36.9279 31.5164 36.1992 32.093 35.5906C32.6135 35.0461 33.7986 34.1252 35.9287 34.1172C39.6203 34.1092 41.5902 35.5186 41.6703 35.5746C42.4951 36.1832 43.6643 36.0391 44.3129 35.2303C44.9775 34.4055 44.8414 33.1883 44.0166 32.5317L42.7514 34.1092L42.7594 34.1012L43.9445 32.4836C43.5281 32.1793 41.2459 30.6338 37.3141 30.3295V25.8932C37.3141 24.8281 36.4572 23.9713 35.3922 23.9713H35.3201C34.2551 23.9713 33.3982 24.8281 33.3982 25.8932V30.5938C31.7166 31.0262 30.3232 31.867 29.2982 32.9481C28.001 34.3174 27.3043 36.0551 27.3844 37.7928C27.4644 39.4664 28.2572 42.5975 32.3252 44.4553C34.7355 45.5524 35.6885 45.9047 36.0809 46.0168C36.225 46.0568 36.2891 46.0649 36.3211 46.0729L36.5773 44.3272V44.3192L36.3211 46.0729C36.3291 46.0729 36.3371 46.0729 36.3451 46.0809L36.4092 45.9047L36.4492 45.7926L36.3691 46.0809C36.5293 46.1289 37.6504 46.4492 38.7234 47.0899C39.8045 47.7305 40.8375 48.6834 40.8375 49.9807C40.8375 50.9656 40.2609 51.7184 39.4441 52.2309C38.6273 52.7434 37.5543 53.0236 36.5693 53.0557C34.5994 53.1277 31.7086 52.5992 30.1471 50.6854C29.4744 49.8606 28.2652 49.7404 27.4404 50.4131C26.6156 51.0858 26.4955 52.2949 27.1682 53.1197C28.9299 55.2818 31.3723 56.2268 33.3902 56.6272V60.6951C33.3902 61.7602 34.2471 62.617 35.3121 62.617H35.3842C36.4492 62.617 37.306 61.7602 37.306 60.6951V56.8594C38.8195 56.7152 40.285 56.2348 41.4781 55.4901C43.5281 54.2008 44.6893 52.1908 44.6893 49.9647ZM64.5006 36.8959C61.7779 33.2924 59.1033 30.9461 59.0393 30.8901L59.0312 30.882C54.9873 27.3586 52.673 24.4277 51.3838 22.4178C50.7352 21.4168 50.3428 20.6401 50.1186 20.1436C50.0064 19.8953 49.9344 19.7111 49.8943 19.607C49.8863 19.583 49.8783 19.567 49.8703 19.551V19.4789C49.8463 19.1106 50.1506 17.9975 50.7512 16.7883C51.624 14.9465 53.0174 12.7684 54.1865 11.0947C55.3557 9.4131 56.2766 8.24396 56.2766 8.23595L56.5008 7.8756C56.733 7.39513 56.8771 6.85861 56.8771 6.30607C56.8852 5.44923 56.5008 4.66446 56.0603 4.184C54.699 2.79864 53.2896 2.77462 53.1375 2.68654C52.6971 2.61447 52.2566 2.69454 51.8643 2.91075C49.8703 4.05587 47.9164 4.35216 46.3789 4.35216C45.5061 4.35216 44.7773 4.25607 44.2809 4.15997C44.1367 4.13595 44.0166 4.10392 43.9205 4.0799C40.9016 1.48536 37.6584 1.15704 36.233 1.15704H35.8006C34.3752 1.15704 31.132 1.48536 28.1131 4.0799C27.6566 4.192 26.7678 4.35216 25.6547 4.35216C24.1172 4.35216 22.1633 4.04786 20.1693 2.91075C19.785 2.68654 19.3365 2.60646 18.8961 2.68654C18.792 2.71056 18.1273 2.80665 17.3025 3.19904C16.8861 3.40724 16.4137 3.68751 15.9732 4.17599C15.5328 4.65646 15.1404 5.44122 15.1484 6.29806C15.1484 6.8506 15.2926 7.38712 15.5248 7.8756L15.749 8.23595C15.749 8.23595 16.1494 8.74845 16.774 9.59728C17.7109 10.8705 19.1123 12.8805 20.2574 14.8584C21.4186 16.7883 22.2193 18.8783 22.1553 19.4709V19.543C21.9631 20.0875 20.2895 24.5158 12.9943 30.874L12.9863 30.882C12.9223 30.9381 10.2477 33.2844 7.525 36.8879C4.81836 40.4994 1.96758 45.3602 1.93555 50.7334C1.93555 52.1588 2.15176 53.6082 2.64023 55.0416C2.83242 55.8744 3.91348 59.9344 7.7332 64.0264C11.8973 68.5108 19.3846 72.851 31.8848 72.835C32.9498 72.835 33.8066 71.9781 33.8066 70.9131C33.8066 69.8481 32.9498 68.9912 31.8848 68.9912C20.2414 68.9672 14.0354 65.1154 10.5439 61.4078C8.79824 59.542 7.74922 57.6842 7.14063 56.3068C6.83633 55.6182 6.64414 55.0496 6.52402 54.6733C6.46797 54.4811 6.42793 54.3369 6.40391 54.2488C6.37988 54.1608 6.37988 54.1527 6.37988 54.1527L6.30781 53.8885C5.94746 52.8555 5.7873 51.8145 5.7873 50.7414C5.75527 46.8256 8.10156 42.4854 10.592 39.2102C11.8252 37.5766 13.0744 36.1992 14.0113 35.2463C14.4758 34.7658 14.8602 34.3975 15.1324 34.1412C15.3967 33.893 15.5328 33.7809 15.5328 33.7729L15.5248 33.7809C24.0932 26.3096 25.7508 20.9283 25.8469 20.56L25.8629 20.4959C25.951 20.1436 25.983 19.8072 25.983 19.4789C25.959 17.9815 25.4144 16.6041 24.7338 15.1307C23.2283 11.9996 20.7939 8.58029 19.5527 6.90665C21.7869 7.90763 23.933 8.19591 25.6467 8.19591C27.9689 8.19591 29.5225 7.6754 29.6666 7.63536C29.9228 7.54728 30.1631 7.40314 30.3633 7.21896C32.2691 5.44122 34.3432 5.07286 35.4322 5.0088C35.5764 5.02482 35.7285 5.02482 35.8807 5.0088C35.8967 5.0088 35.9367 5.00079 36.0168 5.00079C36.0488 5.00079 36.0728 5.00079 36.0969 5.0088C36.1289 5.0088 36.1449 5.0088 36.1529 5.01681C36.3051 5.03282 36.4572 5.03282 36.6014 5.01681C37.6904 5.08087 39.7644 5.44923 41.6703 7.21896C41.8705 7.40314 42.1107 7.54728 42.367 7.63536C42.5031 7.68341 44.0566 8.19591 46.3789 8.19591C48.0846 8.19591 50.2307 7.90763 52.4648 6.90665C51.7922 7.81154 50.7752 9.22892 49.7502 10.8225C48.8693 12.1838 47.9805 13.6813 47.2918 15.1387C46.6111 16.6121 46.0666 17.9815 46.0426 19.4869C46.0426 19.8152 46.0746 20.1516 46.1627 20.5039L46.1787 20.568C46.2748 20.9283 47.9324 26.3176 56.5248 33.7889L56.5168 33.7809C56.5168 33.7809 56.6449 33.893 56.9172 34.1492C57.8461 35.0221 60.2484 37.4164 62.3705 40.4914C64.5006 43.5664 66.2783 47.3221 66.2543 50.7494C66.2543 51.8225 66.0941 52.8635 65.7338 53.8965L65.6537 54.2168L65.6377 54.2809C65.5096 54.8334 64.6687 58.1006 61.1613 61.4158C57.6219 64.7231 51.3758 68.2145 40.0287 68.9992C38.9717 69.0713 38.1709 69.9922 38.243 71.0492C38.315 72.1063 39.2359 72.907 40.293 72.835C53.1215 71.9701 60.5047 67.6699 64.5807 63.4098C68.2562 59.566 69.2092 55.8824 69.3853 55.0176C69.8658 53.5922 70.074 52.1508 70.074 50.7414C70.05 45.3682 67.1992 40.5074 64.5006 36.8959Z" />
    </mask>
    <path
        d="M44.0166 32.5156L43.9445 32.4676L42.7594 34.0852L44.0166 32.5156ZM36.3691 46.0649L36.4172 45.8887L36.3531 46.0649C36.3611 46.0568 36.3611 46.0568 36.3691 46.0649ZM44.6893 49.9647C44.6893 48.5313 44.1687 45.8326 40.6853 43.7666C39.4121 43.0139 38.1469 42.5815 37.4822 42.3813H37.4742C37.4582 42.3813 37.4502 42.3733 37.4422 42.3733C37.3381 42.3412 37.226 42.3172 37.1139 42.2932C36.9057 42.2211 36.1209 41.9408 33.9348 40.9479C31.7967 39.9709 31.2842 38.5856 31.2361 37.6006C31.2041 36.9279 31.5164 36.1992 32.093 35.5906C32.6135 35.0461 33.7986 34.1252 35.9287 34.1172C39.6203 34.1092 41.5902 35.5186 41.6703 35.5746C42.4951 36.1832 43.6643 36.0391 44.3129 35.2303C44.9775 34.4055 44.8414 33.1883 44.0166 32.5317L42.7514 34.1092L42.7594 34.1012L43.9445 32.4836C43.5281 32.1793 41.2459 30.6338 37.3141 30.3295V25.8932C37.3141 24.8281 36.4572 23.9713 35.3922 23.9713H35.3201C34.2551 23.9713 33.3982 24.8281 33.3982 25.8932V30.5938C31.7166 31.0262 30.3232 31.867 29.2982 32.9481C28.001 34.3174 27.3043 36.0551 27.3844 37.7928C27.4644 39.4664 28.2572 42.5975 32.3252 44.4553C34.7355 45.5524 35.6885 45.9047 36.0809 46.0168C36.225 46.0568 36.2891 46.0649 36.3211 46.0729L36.5773 44.3272V44.3192L36.3211 46.0729C36.3291 46.0729 36.3371 46.0729 36.3451 46.0809L36.4092 45.9047L36.4492 45.7926L36.3691 46.0809C36.5293 46.1289 37.6504 46.4492 38.7234 47.0899C39.8045 47.7305 40.8375 48.6834 40.8375 49.9807C40.8375 50.9656 40.2609 51.7184 39.4441 52.2309C38.6273 52.7434 37.5543 53.0236 36.5693 53.0557C34.5994 53.1277 31.7086 52.5992 30.1471 50.6854C29.4744 49.8606 28.2652 49.7404 27.4404 50.4131C26.6156 51.0858 26.4955 52.2949 27.1682 53.1197C28.9299 55.2818 31.3723 56.2268 33.3902 56.6272V60.6951C33.3902 61.7602 34.2471 62.617 35.3121 62.617H35.3842C36.4492 62.617 37.306 61.7602 37.306 60.6951V56.8594C38.8195 56.7152 40.285 56.2348 41.4781 55.4901C43.5281 54.2008 44.6893 52.1908 44.6893 49.9647ZM64.5006 36.8959C61.7779 33.2924 59.1033 30.9461 59.0393 30.8901L59.0312 30.882C54.9873 27.3586 52.673 24.4277 51.3838 22.4178C50.7352 21.4168 50.3428 20.6401 50.1186 20.1436C50.0064 19.8953 49.9344 19.7111 49.8943 19.607C49.8863 19.583 49.8783 19.567 49.8703 19.551V19.4789C49.8463 19.1106 50.1506 17.9975 50.7512 16.7883C51.624 14.9465 53.0174 12.7684 54.1865 11.0947C55.3557 9.4131 56.2766 8.24396 56.2766 8.23595L56.5008 7.8756C56.733 7.39513 56.8771 6.85861 56.8771 6.30607C56.8852 5.44923 56.5008 4.66446 56.0603 4.184C54.699 2.79864 53.2896 2.77462 53.1375 2.68654C52.6971 2.61447 52.2566 2.69454 51.8643 2.91075C49.8703 4.05587 47.9164 4.35216 46.3789 4.35216C45.5061 4.35216 44.7773 4.25607 44.2809 4.15997C44.1367 4.13595 44.0166 4.10392 43.9205 4.0799C40.9016 1.48536 37.6584 1.15704 36.233 1.15704H35.8006C34.3752 1.15704 31.132 1.48536 28.1131 4.0799C27.6566 4.192 26.7678 4.35216 25.6547 4.35216C24.1172 4.35216 22.1633 4.04786 20.1693 2.91075C19.785 2.68654 19.3365 2.60646 18.8961 2.68654C18.792 2.71056 18.1273 2.80665 17.3025 3.19904C16.8861 3.40724 16.4137 3.68751 15.9732 4.17599C15.5328 4.65646 15.1404 5.44122 15.1484 6.29806C15.1484 6.8506 15.2926 7.38712 15.5248 7.8756L15.749 8.23595C15.749 8.23595 16.1494 8.74845 16.774 9.59728C17.7109 10.8705 19.1123 12.8805 20.2574 14.8584C21.4186 16.7883 22.2193 18.8783 22.1553 19.4709V19.543C21.9631 20.0875 20.2895 24.5158 12.9943 30.874L12.9863 30.882C12.9223 30.9381 10.2477 33.2844 7.525 36.8879C4.81836 40.4994 1.96758 45.3602 1.93555 50.7334C1.93555 52.1588 2.15176 53.6082 2.64023 55.0416C2.83242 55.8744 3.91348 59.9344 7.7332 64.0264C11.8973 68.5108 19.3846 72.851 31.8848 72.835C32.9498 72.835 33.8066 71.9781 33.8066 70.9131C33.8066 69.8481 32.9498 68.9912 31.8848 68.9912C20.2414 68.9672 14.0354 65.1154 10.5439 61.4078C8.79824 59.542 7.74922 57.6842 7.14063 56.3068C6.83633 55.6182 6.64414 55.0496 6.52402 54.6733C6.46797 54.4811 6.42793 54.3369 6.40391 54.2488C6.37988 54.1608 6.37988 54.1527 6.37988 54.1527L6.30781 53.8885C5.94746 52.8555 5.7873 51.8145 5.7873 50.7414C5.75527 46.8256 8.10156 42.4854 10.592 39.2102C11.8252 37.5766 13.0744 36.1992 14.0113 35.2463C14.4758 34.7658 14.8602 34.3975 15.1324 34.1412C15.3967 33.893 15.5328 33.7809 15.5328 33.7729L15.5248 33.7809C24.0932 26.3096 25.7508 20.9283 25.8469 20.56L25.8629 20.4959C25.951 20.1436 25.983 19.8072 25.983 19.4789C25.959 17.9815 25.4144 16.6041 24.7338 15.1307C23.2283 11.9996 20.7939 8.58029 19.5527 6.90665C21.7869 7.90763 23.933 8.19591 25.6467 8.19591C27.9689 8.19591 29.5225 7.6754 29.6666 7.63536C29.9228 7.54728 30.1631 7.40314 30.3633 7.21896C32.2691 5.44122 34.3432 5.07286 35.4322 5.0088C35.5764 5.02482 35.7285 5.02482 35.8807 5.0088C35.8967 5.0088 35.9367 5.00079 36.0168 5.00079C36.0488 5.00079 36.0728 5.00079 36.0969 5.0088C36.1289 5.0088 36.1449 5.0088 36.1529 5.01681C36.3051 5.03282 36.4572 5.03282 36.6014 5.01681C37.6904 5.08087 39.7644 5.44923 41.6703 7.21896C41.8705 7.40314 42.1107 7.54728 42.367 7.63536C42.5031 7.68341 44.0566 8.19591 46.3789 8.19591C48.0846 8.19591 50.2307 7.90763 52.4648 6.90665C51.7922 7.81154 50.7752 9.22892 49.7502 10.8225C48.8693 12.1838 47.9805 13.6813 47.2918 15.1387C46.6111 16.6121 46.0666 17.9815 46.0426 19.4869C46.0426 19.8152 46.0746 20.1516 46.1627 20.5039L46.1787 20.568C46.2748 20.9283 47.9324 26.3176 56.5248 33.7889L56.5168 33.7809C56.5168 33.7809 56.6449 33.893 56.9172 34.1492C57.8461 35.0221 60.2484 37.4164 62.3705 40.4914C64.5006 43.5664 66.2783 47.3221 66.2543 50.7494C66.2543 51.8225 66.0941 52.8635 65.7338 53.8965L65.6537 54.2168L65.6377 54.2809C65.5096 54.8334 64.6687 58.1006 61.1613 61.4158C57.6219 64.7231 51.3758 68.2145 40.0287 68.9992C38.9717 69.0713 38.1709 69.9922 38.243 71.0492C38.315 72.1063 39.2359 72.907 40.293 72.835C53.1215 71.9701 60.5047 67.6699 64.5807 63.4098C68.2562 59.566 69.2092 55.8824 69.3853 55.0176C69.8658 53.5922 70.074 52.1508 70.074 50.7414C70.05 45.3682 67.1992 40.5074 64.5006 36.8959Z"
        fill="black" />
    <path
        d="M44.0166 32.5156L44.7971 33.1408L45.4794 32.289L44.5713 31.6836L44.0166 32.5156ZM43.9445 32.4676L44.4992 31.6356L43.7033 31.1049L43.1379 31.8766L43.9445 32.4676ZM42.7594 34.0852L41.9527 33.4942L43.5399 34.7104L42.7594 34.0852ZM36.3691 46.0649L35.662 46.772L36.8805 47.9904L37.3339 46.328L36.3691 46.0649ZM36.4172 45.8887L37.3819 46.1518L35.4774 45.5469L36.4172 45.8887ZM36.3531 46.0649L35.4133 45.7231L37.0602 46.772L36.3531 46.0649ZM40.6853 43.7666L41.1955 42.9065L41.1943 42.9058L40.6853 43.7666ZM37.4822 42.3813L37.7706 41.4238L37.6296 41.3813H37.4822V42.3813ZM37.4422 42.3732L37.1481 43.329L37.2918 43.3732H37.4422V42.3732ZM37.1139 42.2932L36.7868 43.2382L36.8445 43.2582L36.9043 43.271L37.1139 42.2932ZM33.9348 40.9479L33.5192 41.8574L33.5212 41.8583L33.9348 40.9479ZM31.2361 37.6006L30.2373 37.6482L30.2373 37.6493L31.2361 37.6006ZM32.093 35.5906L31.3701 34.8997L31.367 34.9029L32.093 35.5906ZM35.9287 34.1172L35.9265 33.1172L35.9249 33.1172L35.9287 34.1172ZM41.6703 35.5746L42.264 34.77L42.254 34.7626L42.2438 34.7554L41.6703 35.5746ZM44.3129 35.2303L43.5342 34.6028L43.5328 34.6046L44.3129 35.2303ZM44.0166 32.5317L44.6394 31.7493L43.8599 31.1287L43.2365 31.906L44.0166 32.5317ZM42.7514 34.1092L41.9713 33.4835L43.4584 34.8164L42.7514 34.1092ZM42.7594 34.1012L43.4664 34.8084L43.5207 34.7541L43.566 34.6922L42.7594 34.1012ZM43.9445 32.4836L44.7512 33.0746L45.3429 32.267L44.5345 31.6762L43.9445 32.4836ZM37.3141 30.3295H36.3141V31.2551L37.2369 31.3265L37.3141 30.3295ZM33.3982 30.5938L33.6473 31.5623L34.3982 31.3692V30.5938H33.3982ZM29.2982 32.9481L28.5726 32.26L28.5723 32.2603L29.2982 32.9481ZM27.3844 37.7928L26.3854 37.8388L26.3855 37.8406L27.3844 37.7928ZM32.3252 44.4553L31.9098 45.3649L31.9109 45.3654L32.3252 44.4553ZM36.0809 46.0168L35.8061 46.9784L35.8132 46.9803L36.0809 46.0168ZM36.3211 46.0729L36.0786 47.043L36.198 47.0729H36.3211V46.0729ZM36.5773 44.3272L37.5667 44.4724L37.5773 44.4002V44.3272H36.5773ZM36.5773 44.3192H37.5773L35.5878 44.1746L36.5773 44.3192ZM36.3451 46.0809L35.638 46.788L36.7483 47.8983L37.2849 46.4226L36.3451 46.0809ZM36.4092 45.9047L37.349 46.2464L37.3509 46.241L36.4092 45.9047ZM36.4492 45.7926L37.4127 46.0602L35.5075 45.4563L36.4492 45.7926ZM36.3691 46.0809L35.4056 45.8132L35.1434 46.7572L36.0818 47.0387L36.3691 46.0809ZM38.7234 47.0899L38.2108 47.9485L38.2136 47.9501L38.7234 47.0899ZM36.5693 53.0557L36.5368 52.0562L36.5328 52.0563L36.5693 53.0557ZM30.1471 50.6854L29.3721 51.3174L29.3722 51.3175L30.1471 50.6854ZM27.1682 53.1197L27.9434 52.4881L27.9431 52.4877L27.1682 53.1197ZM33.3902 56.6272H34.3902V55.8061L33.5848 55.6463L33.3902 56.6272ZM37.306 56.8594L37.2112 55.8639L36.306 55.9501V56.8594H37.306ZM41.4781 55.4901L42.0076 56.3384L42.0105 56.3366L41.4781 55.4901ZM64.5006 36.8959L65.3017 36.2973L65.2985 36.2931L64.5006 36.8959ZM59.0393 30.8901L58.3323 31.5973L58.3558 31.6208L58.3808 31.6426L59.0393 30.8901ZM59.0312 30.882L59.7382 30.1748L59.714 30.1506L59.6882 30.1281L59.0312 30.882ZM51.3838 22.4178L52.2255 21.8779L52.223 21.874L51.3838 22.4178ZM50.1185 20.1436L51.0299 19.732L50.1185 20.1436ZM49.8943 19.607L48.9457 19.9233L48.9528 19.9448L48.961 19.966L49.8943 19.607ZM49.8703 19.551H48.8703V19.7871L48.9759 19.9982L49.8703 19.551ZM49.8703 19.4789H50.8703V19.4463L50.8682 19.4138L49.8703 19.4789ZM50.7512 16.7883L51.6468 17.2331L51.6509 17.2249L51.6548 17.2165L50.7512 16.7883ZM54.1865 11.0947L55.0063 11.6674L55.0076 11.6656L54.1865 11.0947ZM56.2766 8.23595L55.4275 7.70765L55.2766 7.95024V8.23595H56.2766ZM56.5008 7.8756L57.3498 8.4039L57.378 8.3587L57.4011 8.31077L56.5008 7.8756ZM56.8771 6.30607L55.8771 6.29672V6.30607H56.8771ZM56.0603 4.184L56.7975 3.50827L56.7858 3.49548L56.7736 3.4831L56.0603 4.184ZM53.1375 2.68654L53.6385 1.82111L53.4799 1.72926L53.299 1.69966L53.1375 2.68654ZM51.8643 2.91075L51.3816 2.03492L51.3739 2.03918L51.3662 2.04359L51.8643 2.91075ZM44.2809 4.15997L44.4709 3.17819L44.4581 3.17572L44.4453 3.17358L44.2809 4.15997ZM43.9205 4.0799L43.2687 4.8383L43.4483 4.99261L43.678 5.05004L43.9205 4.0799ZM28.1131 4.0799L28.3516 5.05103L28.5837 4.99404L28.7649 4.8383L28.1131 4.0799ZM20.1693 2.91075L19.6654 3.77457L19.6739 3.77943L20.1693 2.91075ZM18.8961 2.68654L18.7172 1.70267L18.6941 1.70687L18.6712 1.71214L18.8961 2.68654ZM17.3025 3.19904L16.8729 2.29601L16.8641 2.30022L16.8553 2.30461L17.3025 3.19904ZM15.9732 4.17599L16.7104 4.85174L16.7159 4.84563L15.9732 4.17599ZM15.1484 6.29806H16.1485L16.1484 6.28871L15.1484 6.29806ZM15.5248 7.8756L14.6217 8.30496L14.6459 8.35596L14.6757 8.4039L15.5248 7.8756ZM15.749 8.23595L14.9 8.76425L14.9282 8.80955L14.961 8.85159L15.749 8.23595ZM16.774 9.59728L15.9686 10.19L16.774 9.59728ZM20.2574 14.8584L19.392 15.3594L19.3962 15.3667L19.4006 15.374L20.2574 14.8584ZM22.1553 19.4709L21.1611 19.3634L21.1553 19.417V19.4709H22.1553ZM22.1553 19.543L23.0983 19.8758L23.1553 19.7143V19.543H22.1553ZM12.9943 30.874L12.3373 30.1202L12.3115 30.1427L12.2872 30.1669L12.9943 30.874ZM12.9863 30.882L13.6448 31.6346L13.6699 31.6127L13.6934 31.5892L12.9863 30.882ZM7.525 36.8879L6.72713 36.2851L6.72479 36.2882L7.525 36.8879ZM1.93555 50.7334L0.935547 50.7274V50.7334H1.93555ZM2.64023 55.0416L3.61463 54.8167L3.60319 54.7672L3.58678 54.719L2.64023 55.0416ZM7.7332 64.0264L8.466 63.3459L8.46421 63.344L7.7332 64.0264ZM31.8848 72.835V71.835H31.8835L31.8848 72.835ZM31.8848 68.9912L31.8827 69.9912H31.8848V68.9912ZM10.5439 61.4078L9.81372 62.091L9.81593 62.0934L10.5439 61.4078ZM6.52402 54.6733L5.56402 54.9533L5.56754 54.9653L5.57136 54.9773L6.52402 54.6733ZM6.37988 54.1527L7.37988 54.1529L7.3799 54.0189L7.34465 53.8896L6.37988 54.1527ZM6.30781 53.8885L7.27257 53.6254L7.26344 53.5919L7.25201 53.5591L6.30781 53.8885ZM5.7873 50.7414H6.78734L6.78727 50.7332L5.7873 50.7414ZM10.592 39.2102L11.388 39.8155L11.3901 39.8127L10.592 39.2102ZM14.0113 35.2463L14.7244 35.9474L14.7303 35.9413L14.0113 35.2463ZM15.1324 34.1412L14.4477 33.4124L14.4471 33.413L15.1324 34.1412ZM15.5328 33.7729H16.5328V31.3592L14.8258 33.0657L15.5328 33.7729ZM15.5248 33.7809L14.8178 33.0737L16.182 34.5346L15.5248 33.7809ZM25.8469 20.56L26.8145 20.8124L26.817 20.8025L25.8469 20.56ZM25.8629 20.4959L24.8927 20.2534L24.8927 20.2534L25.8629 20.4959ZM25.983 19.4789H26.983V19.4709L26.9829 19.4629L25.983 19.4789ZM24.7338 15.1307L25.6416 14.7113L25.6384 14.7043L25.635 14.6973L24.7338 15.1307ZM19.5527 6.90665L19.9616 5.99406L16.4712 4.43025L18.7495 7.50234L19.5527 6.90665ZM29.6666 7.63536L29.9342 8.59888L29.9632 8.59083L29.9917 8.58105L29.6666 7.63536ZM30.3633 7.21896L31.0404 7.95491L31.0454 7.95022L30.3633 7.21896ZM35.4322 5.0088L35.5427 4.01492L35.4583 4.00554L35.3735 4.01053L35.4322 5.0088ZM35.8807 5.0088V4.0088H35.8282L35.776 4.0143L35.8807 5.0088ZM36.0969 5.0088L35.7806 5.95748L35.9346 6.0088H36.0969V5.0088ZM36.1529 5.01681L35.4458 5.72392L35.6962 5.97425L36.0482 6.01131L36.1529 5.01681ZM36.6014 5.01681L36.6601 4.01853L36.5753 4.01355L36.4909 4.02293L36.6014 5.01681ZM41.6703 7.21896L40.9898 7.95176L40.9933 7.95489L41.6703 7.21896ZM42.367 7.63536L42.6998 6.69234L42.6921 6.68968L42.367 7.63536ZM52.4648 6.90665L53.2674 7.50324L55.5544 4.42666L52.056 5.99406L52.4648 6.90665ZM49.7502 10.8225L50.5898 11.3657L50.5912 11.3634L49.7502 10.8225ZM47.2918 15.1387L46.3876 14.7114L46.384 14.7193L47.2918 15.1387ZM46.0426 19.4869L45.0427 19.471L45.0426 19.4789V19.4869H46.0426ZM46.1627 20.5039L47.1329 20.2614L47.1328 20.2614L46.1627 20.5039ZM46.1787 20.568L45.2085 20.8105L45.2105 20.8181L45.2125 20.8256L46.1787 20.568ZM56.5248 33.7889L55.8686 34.5435L57.232 33.0819L56.5248 33.7889ZM56.5168 33.7809L57.1753 33.0283L55.8096 34.4879L56.5168 33.7809ZM56.9172 34.1492L56.2318 34.8774L56.2324 34.878L56.9172 34.1492ZM62.3705 40.4914L61.5475 41.0594L61.5485 41.0608L62.3705 40.4914ZM66.2543 50.7494L65.2543 50.7424V50.7494H66.2543ZM65.7338 53.8965L64.7896 53.5671L64.7746 53.61L64.7636 53.654L65.7338 53.8965ZM65.6537 54.2168L66.6238 54.4594L66.6238 54.4593L65.6537 54.2168ZM65.6377 54.2809L64.6676 54.0383L64.6655 54.0466L64.6635 54.055L65.6377 54.2809ZM61.1613 61.4158L61.8441 62.1465L61.8482 62.1426L61.1613 61.4158ZM40.0287 68.9992L40.0967 69.9969L40.0977 69.9968L40.0287 68.9992ZM40.293 72.835L40.2257 71.8372L40.2249 71.8373L40.293 72.835ZM64.5807 63.4098L65.3032 64.1011L65.3034 64.1009L64.5807 63.4098ZM69.3853 55.0176L68.4377 54.6982L68.4179 54.7571L68.4055 54.818L69.3853 55.0176ZM70.074 50.7414H71.074L71.074 50.7369L70.074 50.7414ZM44.5713 31.6836L44.4992 31.6356L43.3898 33.2996L43.4619 33.3477L44.5713 31.6836ZM43.1379 31.8766L41.9527 33.4942L43.566 34.6762L44.7512 33.0586L43.1379 31.8766ZM43.5399 34.7104L44.7971 33.1408L43.2361 31.8905L41.9789 33.46L43.5399 34.7104ZM37.3339 46.328L37.3819 46.1518L35.4524 45.6255L35.4044 45.8017L37.3339 46.328ZM35.4774 45.5469L35.4133 45.7231L37.2929 46.4066L37.357 46.2304L35.4774 45.5469ZM37.0602 46.772C37.0796 46.7526 37.0351 46.7992 36.9827 46.8411C36.9361 46.8784 36.7108 47.0588 36.3611 47.0588C36.0115 47.0588 35.7862 46.8784 35.7396 46.8411C35.6871 46.7992 35.6427 46.7526 35.662 46.772L37.0762 45.3577C37.0761 45.3576 37.074 45.3555 37.0717 45.3532C37.0693 45.3508 37.0648 45.3464 37.0591 45.3409C37.0501 45.3323 37.0244 45.3077 36.9892 45.2796C36.9401 45.2403 36.7128 45.0588 36.3611 45.0588C36.0095 45.0588 35.7822 45.2403 35.7331 45.2796C35.6979 45.3077 35.6722 45.3323 35.6632 45.3409C35.6575 45.3464 35.653 45.3508 35.6506 45.3532C35.6483 45.3555 35.6461 45.3576 35.646 45.3577L37.0602 46.772ZM45.6893 49.9647C45.6893 48.2537 45.0423 45.1881 41.1955 42.9065L40.1752 44.6267C43.2952 46.4772 43.6893 48.8088 43.6893 49.9647H45.6893ZM41.1943 42.9058C39.8241 42.0957 38.474 41.6356 37.7706 41.4238L37.1938 43.3388C37.8197 43.5273 39.0002 43.932 40.1764 44.6274L41.1943 42.9058ZM37.4822 41.3813H37.4742V43.3813H37.4822V41.3813ZM37.4742 41.3813C37.5142 41.3813 37.5534 41.3838 37.5916 41.3885C37.6297 41.3932 37.665 41.3999 37.697 41.4076C37.7605 41.4229 37.808 41.4413 37.8267 41.4488C37.8312 41.4506 37.8345 41.452 37.8353 41.4523C37.8355 41.4524 37.836 41.4526 37.8351 41.4523C37.8347 41.4521 37.8334 41.4515 37.8318 41.4509C37.8288 41.4496 37.8225 41.4471 37.8145 41.4439C37.8065 41.4408 37.795 41.4364 37.7812 41.4315C37.7673 41.4266 37.7497 41.4208 37.7292 41.4147C37.7086 41.4086 37.6839 41.4021 37.6558 41.396C37.5995 41.3839 37.5269 41.3732 37.4422 41.3732V43.3732C37.3594 43.3732 37.2889 43.3629 37.2346 43.3512C37.2075 43.3453 37.1839 43.339 37.1643 43.3333C37.1448 43.3275 37.1282 43.322 37.1154 43.3175C37.1026 43.313 37.0923 43.309 37.0853 43.3063C37.0785 43.3036 37.0733 43.3015 37.0714 43.3007C37.0704 43.3003 37.0697 43.3 37.0698 43.3C37.0698 43.3 37.0699 43.3 37.0699 43.3001C37.07 43.3001 37.0701 43.3002 37.0702 43.3002C37.0705 43.3003 37.0709 43.3005 37.0715 43.3007C37.0734 43.3015 37.078 43.3034 37.0837 43.3057C37.1074 43.3152 37.1604 43.3356 37.2301 43.3524C37.2653 43.3608 37.3039 43.3682 37.3456 43.3733C37.3873 43.3785 37.4302 43.3813 37.4742 43.3813V41.3813ZM37.7363 41.4175C37.5829 41.3703 37.4267 41.3375 37.3234 41.3154L36.9043 43.271C37.0252 43.2969 37.0933 43.3122 37.1481 43.329L37.7363 41.4175ZM37.441 41.3482C37.2728 41.29 36.5187 41.0232 34.3483 40.0374L33.5212 41.8583C35.7231 42.8584 36.5386 43.1522 36.7868 43.2382L37.441 41.3482ZM34.3504 40.0383C33.4197 39.6131 32.9116 39.1321 32.6292 38.7158C32.3466 38.2992 32.2515 37.891 32.2349 37.5519L30.2373 37.6493C30.2688 38.2952 30.454 39.0721 30.9742 39.8387C31.4945 40.6056 32.3117 41.3057 33.5192 41.8574L34.3504 40.0383ZM32.235 37.553C32.219 37.2181 32.379 36.7427 32.8189 36.2784L31.367 34.9029C30.6538 35.6558 30.1891 36.6378 30.2373 37.6482L32.235 37.553ZM32.8158 36.2816C33.1895 35.8907 34.1282 35.124 35.9325 35.1172L35.9249 33.1172C33.4691 33.1264 32.0374 34.2015 31.3701 34.8997L32.8158 36.2816ZM35.9309 35.1172C37.6464 35.1135 38.9432 35.4387 39.8054 35.7592C40.2372 35.9198 40.5615 36.0797 40.7756 36.1978C40.9867 36.3142 41.0929 36.3911 41.0968 36.3939L42.2438 34.7554C42.2467 34.7575 42.2353 34.7494 42.2288 34.7449C42.2199 34.7387 42.2086 34.7309 42.1951 34.7217C42.168 34.7033 42.133 34.6801 42.0901 34.6527C42.0044 34.598 41.8881 34.5274 41.7415 34.4465C41.4483 34.2848 41.0344 34.0824 40.5023 33.8846C39.4366 33.4884 37.9027 33.1129 35.9265 33.1172L35.9309 35.1172ZM41.0766 36.3793C42.33 37.3042 44.1062 37.0864 45.093 35.8559L43.5328 34.6046C43.2223 34.9917 42.6602 35.0623 42.264 34.77L41.0766 36.3793ZM45.0915 35.8577C46.1041 34.6012 45.8983 32.7515 44.6394 31.7493L43.3938 33.314C43.7845 33.6251 43.851 34.2097 43.5342 34.6028L45.0915 35.8577ZM43.2365 31.906L41.9713 33.4835L43.5315 34.7349L44.7967 33.1573L43.2365 31.906ZM43.4584 34.8164L43.4664 34.8084L42.0524 33.394L42.0444 33.402L43.4584 34.8164ZM43.566 34.6922L44.7512 33.0746L43.1379 31.8926L41.9527 33.5102L43.566 34.6922ZM44.5345 31.6762C44.0151 31.2966 41.5588 29.655 37.3912 29.3325L37.2369 31.3265C40.933 31.6126 43.0411 33.062 43.3545 33.291L44.5345 31.6762ZM38.3141 30.3295V25.8932H36.3141V30.3295H38.3141ZM38.3141 25.8932C38.3141 24.2759 37.0095 22.9713 35.3922 22.9713V24.9713C35.9049 24.9713 36.3141 25.3804 36.3141 25.8932H38.3141ZM35.3922 22.9713H35.3201V24.9713H35.3922V22.9713ZM35.3201 22.9713C33.7028 22.9713 32.3982 24.2759 32.3982 25.8932H34.3982C34.3982 25.3804 34.8074 24.9713 35.3201 24.9713V22.9713ZM32.3982 25.8932V30.5938H34.3982V25.8932H32.3982ZM33.1492 29.6253C31.2923 30.1028 29.7317 31.0375 28.5726 32.26L30.0239 33.6361C30.9148 32.6965 32.1409 31.9496 33.6473 31.5623L33.1492 29.6253ZM28.5723 32.2603C27.1099 33.8039 26.2914 35.7994 26.3854 37.8388L28.3833 37.7468C28.3171 36.3108 28.892 34.8309 30.0242 33.6358L28.5723 32.2603ZM26.3855 37.8406C26.4783 39.7805 27.4135 43.3115 31.9098 45.3649L32.7406 43.5457C29.101 41.8835 28.4506 39.1523 28.3832 37.745L26.3855 37.8406ZM31.9109 45.3654C34.3168 46.4605 35.3328 46.8431 35.8061 46.9783L36.3556 45.0553C36.0442 44.9663 35.1543 44.6442 32.7395 43.5451L31.9109 45.3654ZM35.8132 46.9803C35.9067 47.0063 35.9794 47.0233 36.037 47.0354C36.0642 47.0411 36.0872 47.0456 36.0979 47.0477C36.1165 47.0513 36.1001 47.0484 36.0786 47.043L36.5636 45.1027C36.526 45.0933 36.4897 45.0864 36.4827 45.085C36.4679 45.0821 36.4599 45.0806 36.449 45.0783C36.4306 45.0744 36.3991 45.0673 36.3485 45.0533L35.8132 46.9803ZM37.3105 46.2181L37.5667 44.4724L35.5879 44.1819L35.3317 45.9276L37.3105 46.2181ZM37.5773 44.3272V44.3192H35.5773V44.3272H37.5773ZM35.5878 44.1746L35.3316 45.9283L37.3106 46.2174L37.5668 44.4637L35.5878 44.1746ZM36.3211 47.0729C36.3435 47.0729 36.2249 47.0776 36.0904 47.044C35.9224 47.0019 35.7648 46.9148 35.638 46.788L37.0522 45.3738C36.7334 45.055 36.3443 45.0729 36.3211 45.0729V47.0729ZM37.2849 46.4226L37.349 46.2464L35.4694 45.563L35.4053 45.7391L37.2849 46.4226ZM37.3509 46.241L37.391 46.1289L35.5075 45.4563L35.4674 45.5684L37.3509 46.241ZM35.4857 45.5249L35.4056 45.8132L37.3327 46.3485L37.4127 46.0602L35.4857 45.5249ZM36.0818 47.0387C36.2395 47.086 37.2542 47.3774 38.2108 47.9485L39.236 46.2312C38.0466 45.5211 36.8191 45.1718 36.6565 45.123L36.0818 47.0387ZM38.2136 47.9501C39.2444 48.561 39.8375 49.2555 39.8375 49.9807H41.8375C41.8375 48.1114 40.3645 46.9 39.2332 46.2296L38.2136 47.9501ZM39.8375 49.9807C39.8375 50.5146 39.5417 50.9891 38.9126 51.3838L39.9756 53.0779C40.9802 52.4476 41.8375 51.4167 41.8375 49.9807H39.8375ZM38.9126 51.3838C38.2721 51.7857 37.3788 52.0288 36.5368 52.0562L36.6018 54.0551C37.7298 54.0185 38.9826 53.701 39.9756 53.0779L38.9126 51.3838ZM36.5328 52.0563C35.6439 52.0889 34.5434 51.9845 33.5022 51.6604C32.4581 51.3354 31.5404 50.8113 30.9219 50.0532L29.3722 51.3175C30.3152 52.4733 31.6237 53.1703 32.9079 53.5701C34.195 53.9707 35.5249 54.0946 36.6059 54.055L36.5328 52.0563ZM30.922 50.0534C29.8987 48.7985 28.0592 48.6181 26.8084 49.6381L28.0724 51.1881C28.4713 50.8628 29.0501 50.9226 29.3721 51.3174L30.922 50.0534ZM26.8084 49.6381C25.5536 50.6615 25.3731 52.501 26.3932 53.7517L27.9431 52.4877C27.6179 52.0889 27.6777 51.51 28.0724 51.1881L26.8084 49.6381ZM26.3929 53.7514C28.3559 56.1605 31.0508 57.1825 33.1956 57.608L33.5848 55.6463C31.6938 55.2711 29.5039 54.4032 27.9434 52.4881L26.3929 53.7514ZM32.3902 56.6272V60.6951H34.3902V56.6272H32.3902ZM32.3902 60.6951C32.3902 62.3125 33.6948 63.617 35.3121 63.617V61.617C34.7994 61.617 34.3902 61.2079 34.3902 60.6951H32.3902ZM35.3121 63.617H35.3842V61.617H35.3121V63.617ZM35.3842 63.617C37.0015 63.617 38.306 62.3125 38.306 60.6951H36.306C36.306 61.2079 35.8969 61.617 35.3842 61.617V63.617ZM38.306 60.6951V56.8594H36.306V60.6951H38.306ZM37.4009 57.8549C39.0556 57.6973 40.6722 57.1719 42.0076 56.3384L40.9486 54.6417C39.8977 55.2977 38.5835 55.7332 37.2112 55.8639L37.4009 57.8549ZM42.0105 56.3366C44.3238 54.8817 45.6893 52.5661 45.6893 49.9647H43.6893C43.6893 51.8156 42.7324 53.5199 40.9457 54.6435L42.0105 56.3366ZM65.2985 36.2931C62.5182 32.6134 59.7878 30.2162 59.6978 30.1375L58.3808 31.6426C58.4189 31.676 61.0376 33.9714 63.7027 37.4987L65.2985 36.2931ZM59.7463 30.1828L59.7382 30.1748L58.3242 31.5893L58.3323 31.5973L59.7463 30.1828ZM59.6882 30.1281C55.7092 26.6613 53.4592 23.8012 52.2255 21.8779L50.5421 22.9577C51.8869 25.0543 54.2654 28.0559 58.3743 31.636L59.6882 30.1281ZM52.223 21.874C51.6031 20.9173 51.2345 20.185 51.0299 19.732L49.2072 20.5552C49.451 21.0951 49.8672 21.9163 50.5446 22.9616L52.223 21.874ZM51.0299 19.732C50.9284 19.5072 50.8639 19.3421 50.8277 19.2481L48.961 19.966C49.0049 20.0802 49.0845 20.2834 49.2072 20.5552L51.0299 19.732ZM50.843 19.2908C50.8112 19.1954 50.7759 19.1261 50.7647 19.1038L48.9759 19.9982C48.9808 20.0081 48.975 19.9968 48.9685 19.9821C48.9606 19.9644 48.9527 19.9443 48.9457 19.9233L50.843 19.2908ZM50.8703 19.551V19.4789H48.8703V19.551H50.8703ZM50.8682 19.4138C50.8708 19.4542 50.8645 19.4183 50.8944 19.2667C50.9205 19.1347 50.9651 18.9587 51.0312 18.7464C51.1633 18.3224 51.3697 17.7911 51.6468 17.2331L49.8556 16.3435C49.5321 16.9947 49.286 17.6245 49.1218 18.1514C49.0398 18.4146 48.9753 18.6615 48.9323 18.8796C48.8931 19.0781 48.8578 19.3194 48.8724 19.544L50.8682 19.4138ZM51.6548 17.2165C52.492 15.4501 53.848 13.3255 55.0063 11.6674L53.3667 10.5221C52.1868 12.2112 50.7561 14.4429 49.8475 16.36L51.6548 17.2165ZM55.0076 11.6656C55.5841 10.8363 56.0996 10.1331 56.4709 9.63646C56.6565 9.38825 56.8059 9.19165 56.9092 9.05636C56.9591 8.99111 57.0031 8.93364 57.0299 8.89845C57.0436 8.88048 57.0568 8.86312 57.0672 8.84928C57.0716 8.84328 57.0799 8.83216 57.0886 8.81994C57.0919 8.81532 57.1026 8.80033 57.115 8.78118C57.12 8.77344 57.1354 8.74961 57.1528 8.71793C57.1608 8.70337 57.1791 8.66933 57.1982 8.62403C57.1994 8.62114 57.2766 8.45634 57.2766 8.23595H55.2766C55.2766 8.01563 55.3537 7.85092 55.3548 7.84817C55.3738 7.80299 55.3921 7.76912 55.4 7.75477C55.4172 7.7235 55.4322 7.70021 55.4368 7.69317C55.4483 7.6754 55.4577 7.66235 55.4592 7.66022C55.4643 7.65301 55.4673 7.64911 55.4647 7.65252C55.461 7.65751 55.4533 7.66773 55.4395 7.68578C55.4114 7.72263 55.3744 7.77095 55.3196 7.8427C55.2137 7.98143 55.0598 8.18372 54.869 8.43901C54.4876 8.9493 53.9581 9.67151 53.3655 10.5239L55.0076 11.6656ZM57.1256 8.76425L57.3498 8.4039L55.6517 7.3473L55.4275 7.70765L57.1256 8.76425ZM57.4011 8.31077C57.6883 7.71656 57.8771 7.03194 57.8771 6.30607H55.8771C55.8771 6.68528 55.7777 7.0737 55.6004 7.44043L57.4011 8.31077ZM57.8771 6.31541C57.8878 5.16974 57.3836 4.14768 56.7975 3.50827L55.3232 4.85972C55.6179 5.18125 55.8825 5.72872 55.8772 6.29672L57.8771 6.31541ZM56.7736 3.4831C55.9683 2.6636 55.1369 2.2371 54.4768 2.00529C54.1492 1.8902 53.8694 1.82508 53.6702 1.78373C53.5235 1.75328 53.543 1.759 53.4579 1.74099C53.4361 1.73638 53.4382 1.73633 53.4514 1.74007C53.4589 1.74218 53.4782 1.74778 53.5045 1.75756C53.528 1.7663 53.578 1.78606 53.6385 1.82111L52.6365 3.55196C52.7598 3.62334 52.8751 3.65557 52.9094 3.66523C52.9608 3.67967 53.0101 3.69053 53.044 3.69771C53.0704 3.70328 53.2356 3.73615 53.2637 3.74199C53.4141 3.77321 53.6003 3.81719 53.8141 3.8923C54.2371 4.04085 54.791 4.31904 55.3471 4.88489L56.7736 3.4831ZM53.299 1.69966C52.6305 1.59028 51.964 1.71404 51.3816 2.03492L52.3469 3.78659C52.5493 3.67505 52.7636 3.63865 52.976 3.67341L53.299 1.69966ZM51.3662 2.04359C49.559 3.0815 47.7872 3.35216 46.3789 3.35216V5.35216C48.0456 5.35216 50.1816 5.03025 52.3623 3.77792L51.3662 2.04359ZM46.3789 3.35216C45.5777 3.35216 44.9129 3.26375 44.4709 3.17819L44.0908 5.14175C44.6417 5.24838 45.4344 5.35216 46.3789 5.35216V3.35216ZM44.4453 3.17358C44.3496 3.15763 44.2741 3.13751 44.163 3.10975L43.678 5.05004C43.7591 5.07033 43.9239 5.11427 44.1165 5.14637L44.4453 3.17358ZM44.5723 3.32149C41.3073 0.515498 37.7957 0.157043 36.233 0.157043V2.15704C37.5211 2.15704 40.4958 2.45523 43.2687 4.8383L44.5723 3.32149ZM36.233 0.157043H35.8006V2.15704H36.233V0.157043ZM35.8006 0.157043C34.2379 0.157043 30.7263 0.515498 27.4613 3.32149L28.7649 4.8383C31.5378 2.45523 34.5124 2.15704 35.8006 2.15704V0.157043ZM27.8746 3.10876C27.4853 3.20436 26.6769 3.35216 25.6547 3.35216V5.35216C26.8586 5.35216 27.828 5.17965 28.3516 5.05103L27.8746 3.10876ZM25.6547 3.35216C24.2493 3.35216 22.4753 3.07461 20.6647 2.04208L19.6739 3.77943C21.8513 5.02112 23.9851 5.35216 25.6547 5.35216V3.35216ZM20.6732 2.04698C20.0839 1.70319 19.3934 1.57972 18.7172 1.70267L19.075 3.67041C19.2796 3.6332 19.4861 3.66988 19.6655 3.77453L20.6732 2.04698ZM18.6712 1.71214C18.7237 1.70004 18.3956 1.76197 18.1094 1.8391C17.7812 1.92753 17.3503 2.06893 16.8729 2.29601L17.7321 4.10206C18.4331 3.76861 18.962 3.6976 19.121 3.66093L18.6712 1.71214ZM16.8553 2.30461C16.3826 2.54097 15.7879 2.88823 15.2306 3.50635L16.7159 4.84563C17.0395 4.48679 17.3897 4.2735 17.7498 4.09346L16.8553 2.30461ZM15.2361 3.50026C14.6548 4.13436 14.1377 5.15548 14.1485 6.3074L16.1484 6.28871C16.1431 5.72697 16.4108 5.17855 16.7104 4.85171L15.2361 3.50026ZM14.1484 6.29806C14.1484 7.02466 14.3376 7.70747 14.6217 8.30496L16.4279 7.44624C16.2475 7.06678 16.1484 6.67654 16.1484 6.29806H14.1484ZM14.6757 8.4039L14.9 8.76425L16.5981 7.70765L16.3739 7.34729L14.6757 8.4039ZM15.749 8.23595C14.961 8.85159 14.961 8.85158 14.961 8.85156C14.961 8.85156 14.961 8.85155 14.961 8.85154C14.961 8.85154 14.961 8.85154 14.961 8.85154C14.961 8.85156 14.961 8.8516 14.9611 8.85168C14.9612 8.85183 14.9614 8.85211 14.9617 8.85251C14.9623 8.85331 14.9633 8.85461 14.9647 8.85639C14.9675 8.85996 14.9718 8.86548 14.9776 8.87291C14.9891 8.88778 15.0066 8.91029 15.0296 8.94009C15.0755 8.99971 15.1437 9.0885 15.2314 9.20373C15.4067 9.43422 15.6598 9.77028 15.9686 10.19L17.5795 9.0046C17.2637 8.57545 17.0042 8.23085 16.8232 7.99288C16.7327 7.87387 16.6617 7.78149 16.6131 7.71849C16.5888 7.68698 16.5701 7.66282 16.5573 7.64634C16.5509 7.63811 16.546 7.63179 16.5426 7.62743C16.5409 7.62526 16.5396 7.62357 16.5387 7.62238C16.5382 7.62179 16.5378 7.62132 16.5376 7.62097C16.5374 7.6208 16.5373 7.62066 16.5372 7.62054C16.5372 7.62049 16.5372 7.62044 16.5371 7.6204C16.5371 7.62038 16.5371 7.62036 16.5371 7.62035C16.5371 7.62033 16.537 7.62031 15.749 8.23595ZM15.9686 10.19C16.8943 11.448 18.2723 13.4255 19.392 15.3594L21.1228 14.3574C19.9523 12.3355 18.5275 10.293 17.5795 9.0046L15.9686 10.19ZM19.4006 15.374C19.9537 16.2933 20.4206 17.2508 20.7382 18.0396C20.8972 18.4347 21.0132 18.7734 21.0841 19.0342C21.1666 19.3373 21.1551 19.4189 21.1611 19.3634L23.1495 19.5784C23.1875 19.2267 23.0999 18.8247 23.014 18.509C22.9165 18.1509 22.7717 17.7354 22.5934 17.2927C22.2364 16.4059 21.7223 15.3534 21.1143 14.3429L19.4006 15.374ZM21.1553 19.4709V19.543H23.1553V19.4709H21.1553ZM21.2123 19.2102C21.0801 19.5847 19.5084 23.8701 12.3373 30.1202L13.6514 31.6279C21.0706 25.1616 22.8461 20.5903 23.0983 19.8758L21.2123 19.2102ZM12.2872 30.1669L12.2792 30.1749L13.6934 31.5892L13.7014 31.5811L12.2872 30.1669ZM12.3278 30.1295C12.2378 30.2082 9.50737 32.6053 6.72713 36.2851L8.32287 37.4907C10.9879 33.9634 13.6067 31.668 13.6448 31.6346L12.3278 30.1295ZM6.72479 36.2882C3.98573 39.943 0.969577 45.0218 0.935565 50.7274L2.93553 50.7394C2.96558 45.6985 5.65099 41.0559 8.32521 37.4876L6.72479 36.2882ZM0.935547 50.7334C0.935547 52.2608 1.16741 53.8199 1.69369 55.3642L3.58678 54.719C3.13611 53.3966 2.93555 52.0568 2.93555 50.7334H0.935547ZM1.66584 55.2665C1.88174 56.202 3.02229 60.4452 7.00219 64.7087L8.46421 63.344C4.80466 59.4236 3.7831 55.5468 3.61463 54.8167L1.66584 55.2665ZM7.00041 64.7068C11.3702 69.4128 19.1321 73.8513 31.886 73.835L31.8835 71.835C19.637 71.8507 12.4243 67.6087 8.466 63.3459L7.00041 64.7068ZM31.8848 73.835C33.5021 73.835 34.8066 72.5304 34.8066 70.9131H32.8066C32.8066 71.4258 32.3975 71.835 31.8848 71.835V73.835ZM34.8066 70.9131C34.8066 69.2958 33.5021 67.9912 31.8848 67.9912V69.9912C32.3975 69.9912 32.8066 70.4003 32.8066 70.9131H34.8066ZM31.8868 67.9912C20.4958 67.9677 14.56 64.2139 11.272 60.7223L9.81593 62.0934C13.5107 66.017 19.987 69.9667 31.8827 69.9912L31.8868 67.9912ZM11.2742 60.7246C9.61837 58.9549 8.62704 57.1966 8.05531 55.9027L6.22594 56.711C6.8714 58.1718 7.97812 60.1291 9.81372 62.091L11.2742 60.7246ZM8.05531 55.9027C7.77057 55.2583 7.59063 54.7262 7.47668 54.3692L5.57136 54.9773C5.69765 55.373 5.90209 55.9781 6.22594 56.711L8.05531 55.9027ZM7.48402 54.3933C7.42977 54.2072 7.39131 54.0688 7.36867 53.9857L5.43914 54.512C5.46454 54.6051 5.50617 54.7549 5.56402 54.9533L7.48402 54.3933ZM7.36867 53.9857C7.35807 53.9469 7.35598 53.9373 7.35728 53.9429C7.35783 53.9453 7.36125 53.9601 7.36505 53.9816C7.36698 53.9926 7.37004 54.011 7.37282 54.0342C7.37424 54.0461 7.37589 54.0617 7.37723 54.08C7.37791 54.0893 7.37856 54.1 7.37905 54.1118C7.37929 54.1178 7.3795 54.1242 7.37965 54.131C7.37972 54.1344 7.37978 54.1379 7.37982 54.1415C7.37984 54.1434 7.37986 54.1452 7.37987 54.1471C7.37987 54.1481 7.37988 54.1495 7.37988 54.15C7.37988 54.1514 7.37988 54.1529 6.37988 54.1527C5.37988 54.1526 5.37988 54.1541 5.37989 54.1555C5.37989 54.156 5.37989 54.1574 5.3799 54.1584C5.37991 54.1603 5.37993 54.1621 5.37995 54.1639C5.37999 54.1676 5.38005 54.1711 5.38012 54.1745C5.38027 54.1813 5.38048 54.1877 5.38072 54.1937C5.38121 54.2056 5.38186 54.2164 5.38255 54.2257C5.3839 54.2442 5.38557 54.26 5.38704 54.2723C5.38992 54.2963 5.39316 54.316 5.39547 54.3291C5.40002 54.3549 5.40494 54.3772 5.40849 54.3926C5.4158 54.4243 5.42572 54.4627 5.43914 54.512L7.36867 53.9857ZM7.34465 53.8896L7.27257 53.6254L5.34305 54.1516L5.41512 54.4159L7.34465 53.8896ZM7.25201 53.5591C6.93152 52.6404 6.7873 51.7116 6.7873 50.7414H4.7873C4.7873 51.9174 4.9634 53.0706 5.36361 54.2179L7.25201 53.5591ZM6.78727 50.7332C6.75805 47.1612 8.93141 43.0461 11.388 39.8154L9.79598 38.6049C7.27171 41.9246 4.75249 46.49 4.78734 50.7496L6.78727 50.7332ZM11.3901 39.8127C12.5921 38.2204 13.8115 36.8759 14.7244 35.9474L13.2983 34.5452C12.3373 35.5226 11.0582 36.9328 9.79387 38.6077L11.3901 39.8127ZM14.7303 35.9413C15.1804 35.4757 15.5527 35.1189 15.8178 34.8694L14.4471 33.413C14.1676 33.676 13.7712 34.0559 13.2923 34.5513L14.7303 35.9413ZM15.8171 34.8701C15.9411 34.7536 16.0347 34.6693 16.0988 34.6119C16.1278 34.5859 16.1608 34.5565 16.1839 34.5354C16.1938 34.5262 16.2164 34.5054 16.24 34.4814C16.2495 34.4717 16.2785 34.4421 16.3108 34.4018C16.3258 34.3832 16.3602 34.3394 16.3958 34.2785C16.4139 34.2475 16.4424 34.1951 16.4683 34.1264C16.4916 34.0647 16.5328 33.9384 16.5328 33.7729H14.5328C14.5328 33.6076 14.574 33.4816 14.5971 33.4203C14.6229 33.3518 14.6512 33.2999 14.669 33.2694C14.7041 33.2094 14.7377 33.1666 14.7516 33.1493C14.7818 33.1117 14.8076 33.0856 14.8129 33.0802C14.828 33.0648 14.8379 33.056 14.8309 33.0624C14.8202 33.0723 14.8027 33.0879 14.7646 33.122C14.6946 33.1847 14.588 33.2806 14.4477 33.4124L15.8171 34.8701ZM14.8258 33.0657L14.8178 33.0737L16.2318 34.4881L16.2398 34.4801L14.8258 33.0657ZM16.182 34.5346C24.8827 26.9479 26.6616 21.3985 26.8145 20.8124L24.8793 20.3076C24.8793 20.3072 24.8776 20.3138 24.8735 20.3279C24.8695 20.3415 24.8638 20.3604 24.8561 20.3845C24.8408 20.4329 24.8181 20.5007 24.7868 20.5872C24.7242 20.7602 24.6276 21.0064 24.4865 21.3202C24.2043 21.9475 23.7441 22.8444 23.0222 23.9654C21.5788 26.2066 19.0855 29.3493 14.8676 33.0272L16.182 34.5346ZM26.817 20.8025L26.833 20.7384L24.8927 20.2534L24.8767 20.3175L26.817 20.8025ZM26.833 20.7384C26.9442 20.2936 26.983 19.8742 26.983 19.4789H24.983C24.983 19.7402 24.9577 19.9935 24.8927 20.2534L26.833 20.7384ZM26.9829 19.4629C26.9552 17.7384 26.327 16.1951 25.6416 14.7113L23.826 15.55C24.5019 17.0132 24.9628 18.2245 24.9831 19.495L26.9829 19.4629ZM25.635 14.6973C24.0851 11.4739 21.6007 7.98935 20.3559 6.31097L18.7495 7.50234C19.9872 9.17122 22.3715 12.5253 23.8326 15.564L25.635 14.6973ZM19.1439 7.81925C21.532 8.8892 23.8228 9.19591 25.6467 9.19591V7.19591C24.0432 7.19591 22.0418 6.92606 19.9616 5.99406L19.1439 7.81925ZM25.6467 9.19591C26.882 9.19591 27.9154 9.05753 28.6639 8.91236C29.0384 8.8397 29.342 8.76526 29.5642 8.70547C29.7204 8.66341 30.0001 8.58058 29.9342 8.59888L29.399 6.67185C29.2543 6.71203 27.8186 7.19591 25.6467 7.19591V9.19591ZM29.9917 8.58105C30.3807 8.44732 30.7403 8.23093 31.0403 7.95489L29.6862 6.48303C29.5859 6.57535 29.465 6.64723 29.3415 6.68968L29.9917 8.58105ZM31.0454 7.95022C32.7254 6.38312 34.5454 6.0627 35.4909 6.00708L35.3735 4.01053C34.1409 4.08303 31.8129 4.49932 29.6812 6.4877L31.0454 7.95022ZM35.3218 6.00269C35.5412 6.02706 35.7656 6.02644 35.9853 6.00331L35.776 4.0143C35.6914 4.02319 35.6115 4.02257 35.5427 4.01492L35.3218 6.00269ZM35.8807 6.0088C35.9204 6.0088 35.9522 6.00648 35.9662 6.00538C35.9819 6.00415 35.9952 6.00277 36.0003 6.00224C36.0158 6.00064 36.0125 6.00094 36.0152 6.00069C36.0153 6.00069 36.0152 6.0007 36.015 6.00071C36.0148 6.00073 36.0146 6.00074 36.0143 6.00076C36.0138 6.0008 36.0134 6.00082 36.0131 6.00084C36.0125 6.00087 36.0136 6.00079 36.0168 6.00079V4.00079C35.9417 4.00079 35.881 4.00465 35.8342 4.0089C35.8232 4.0099 35.8138 4.01084 35.8068 4.01158C35.8033 4.01193 35.8002 4.01226 35.7982 4.01247C35.7958 4.01272 35.7951 4.0128 35.7945 4.01286C35.7924 4.01308 35.7993 4.01233 35.8094 4.01154C35.8179 4.01087 35.845 4.0088 35.8807 4.0088V6.0088ZM36.0168 6.00079C36.0267 6.00079 36.0252 6.00082 36.0219 6.00076C36.0176 6.00069 36.0032 6.00039 35.9831 5.99885C35.9399 5.99552 35.867 5.98628 35.7806 5.95748L36.4131 4.06012C36.3027 4.02331 36.2058 4.01007 36.1365 4.00474C36.0778 4.00022 36.023 4.00079 36.0168 4.00079V6.00079ZM36.0969 6.0088C36.1373 6.0088 36.0829 6.01028 36.0235 6.00369C35.9715 5.99791 35.6897 5.96775 35.4458 5.72392L36.86 4.3097C36.6082 4.05786 36.3144 4.0237 36.2443 4.01592C36.1958 4.01053 36.1559 4.00949 36.1384 4.00913C36.12 4.00876 36.1018 4.0088 36.0969 4.0088V6.0088ZM36.0482 6.01131C36.268 6.03445 36.4924 6.03507 36.7118 6.01069L36.4909 4.02293C36.4221 4.03058 36.3421 4.0312 36.2576 4.0223L36.0482 6.01131ZM36.5426 6.01508C37.4887 6.07074 39.3096 6.39148 40.9899 7.95175L42.3508 6.48616C40.2193 4.50698 37.8921 4.09101 36.6601 4.01853L36.5426 6.01508ZM40.9933 7.95489C41.2933 8.23093 41.6529 8.44732 42.0419 8.58105L42.6921 6.68968C42.5686 6.64723 42.4477 6.57535 42.3474 6.48303L40.9933 7.95489ZM42.0342 8.57835C42.249 8.65419 43.9168 9.19591 46.3789 9.19591V7.19591C45.2907 7.19591 44.3857 7.07576 43.7425 6.95174C43.4211 6.88978 43.1662 6.82707 42.9877 6.77841C42.8984 6.75409 42.8285 6.73335 42.7793 6.71808C42.7547 6.71045 42.7354 6.70424 42.7216 6.69971C42.7147 6.69744 42.7094 6.69564 42.7055 6.69434C42.7016 6.693 42.6997 6.69234 42.6998 6.69237L42.0342 8.57835ZM46.3789 9.19591C48.1951 9.19591 50.4858 8.88911 52.8737 7.81925L52.056 5.99406C49.9755 6.92615 47.9741 7.19591 46.3789 7.19591V9.19591ZM51.6623 6.31007C50.9806 7.22717 49.9498 8.66368 48.9092 10.2815L50.5912 11.3634C51.6006 9.79416 52.6038 8.3959 53.2674 7.50324L51.6623 6.31007ZM48.9106 10.2792C48.0174 11.6597 47.1026 13.1983 46.3877 14.7115L48.1959 15.5659C48.8583 14.1642 49.7213 12.7079 50.5898 11.3657L48.9106 10.2792ZM46.384 14.7193C45.6989 16.2024 45.0704 17.7381 45.0427 19.471L47.0424 19.5029C47.0628 18.2248 47.5234 17.0219 48.1996 15.5581L46.384 14.7193ZM45.0426 19.4869C45.0426 19.8823 45.0814 20.3016 45.1926 20.7465L47.1328 20.2614C47.0679 20.0015 47.0426 19.7482 47.0426 19.4869H45.0426ZM45.1925 20.7464L45.2085 20.8105L47.1489 20.3255L47.1329 20.2614L45.1925 20.7464ZM45.2125 20.8256C45.3653 21.3986 47.1418 26.9553 55.8686 34.5435L57.181 33.0343C52.9513 29.3564 50.4522 26.2119 49.006 23.9698C48.2827 22.8483 47.8218 21.9512 47.5392 21.3242C47.3979 21.0106 47.3011 20.7646 47.2384 20.5919C47.2071 20.5055 47.1844 20.4378 47.1689 20.3894C47.1612 20.3653 47.1554 20.3462 47.1513 20.3325C47.1493 20.3256 47.1477 20.3202 47.1466 20.3163C47.1461 20.3144 47.1456 20.3129 47.1454 20.3119C47.1451 20.3108 47.1449 20.3103 47.1449 20.3103L45.2125 20.8256ZM57.232 33.0819L57.224 33.0739L55.8096 34.4879L55.8176 34.4959L57.232 33.0819ZM56.5168 33.7809C55.8583 34.5334 55.8583 34.5334 55.8582 34.5334C55.8582 34.5334 55.8582 34.5334 55.8582 34.5333C55.8581 34.5333 55.8581 34.5333 55.8581 34.5333C55.858 34.5332 55.858 34.5332 55.8579 34.5331C55.8578 34.533 55.8578 34.533 55.8577 34.533C55.8577 34.5329 55.8577 34.533 55.8579 34.5331C55.8583 34.5335 55.8592 34.5343 55.8606 34.5355C55.8635 34.538 55.8683 34.5423 55.8753 34.5485C55.8892 34.5609 55.9114 34.5809 55.9422 34.6089C56.0038 34.6649 56.0997 34.7531 56.2318 34.8774L57.6026 33.421C57.4624 33.2891 57.3581 33.1931 57.2876 33.129C57.2523 33.097 57.2255 33.0729 57.2069 33.0563C57.1975 33.0479 57.1903 33.0415 57.185 33.0369C57.1824 33.0345 57.1803 33.0327 57.1787 33.0312C57.1779 33.0305 57.1772 33.0299 57.1766 33.0294C57.1763 33.0292 57.1761 33.029 57.1759 33.0288C57.1758 33.0287 57.1757 33.0286 57.1756 33.0285C57.1755 33.0285 57.1755 33.0284 57.1754 33.0284C57.1754 33.0284 57.1754 33.0284 57.1754 33.0283C57.1753 33.0283 57.1753 33.0283 56.5168 33.7809ZM56.2324 34.878C57.1335 35.7247 59.4807 38.0646 61.5475 41.0594L63.1935 39.9234C61.0161 36.7682 58.5587 34.3195 57.602 33.4205L56.2324 34.878ZM61.5485 41.0608C63.6375 44.0767 65.2762 47.6233 65.2543 50.7424L67.2543 50.7564C67.2804 47.0209 65.3636 43.0562 63.1925 39.922L61.5485 41.0608ZM65.2543 50.7494C65.2543 51.7196 65.1101 52.6484 64.7896 53.5671L66.678 54.2259C67.0782 53.0786 67.2543 51.9254 67.2543 50.7494H65.2543ZM64.7636 53.654L64.6836 53.9743L66.6238 54.4593L66.7039 54.139L64.7636 53.654ZM64.6836 53.9743L64.6676 54.0383L66.6078 54.5234L66.6238 54.4594L64.6836 53.9743ZM64.6635 54.055C64.5635 54.4865 63.7941 57.5513 60.4744 60.6891L61.8482 62.1426C65.5434 58.6499 66.4557 55.1803 66.6118 54.5068L64.6635 54.055ZM60.4786 60.6852C57.1328 63.8115 51.1155 67.2301 39.9597 68.0016L40.0977 69.9968C51.6361 69.1988 58.111 65.6347 61.8441 62.1465L60.4786 60.6852ZM39.9607 68.0015C38.3508 68.1113 37.1358 69.5111 37.2453 71.1173L39.2407 70.9812C39.206 70.4733 39.5925 70.0313 40.0967 69.9969L39.9607 68.0015ZM37.2453 71.1173C37.355 72.7271 38.7548 73.9422 40.361 73.8327L40.2249 71.8373C39.7171 71.8719 39.275 71.4854 39.2407 70.9812L37.2453 71.1173ZM40.3602 73.8327C53.3957 72.9539 61.0276 68.5699 65.3032 64.1011L63.8581 62.7185C59.9818 66.77 52.8473 70.9863 40.2257 71.8372L40.3602 73.8327ZM65.3034 64.1009C69.1426 60.086 70.1623 56.2132 70.3652 55.2172L68.4055 54.818C68.256 55.5517 67.3699 59.046 63.8579 62.7187L65.3034 64.1009ZM70.333 55.337C70.8511 53.8 71.074 52.2498 71.074 50.7414H69.074C69.074 52.0518 68.8806 53.3844 68.4377 54.6982L70.333 55.337ZM71.074 50.7369C71.0485 45.0305 68.0318 39.9511 65.3016 36.2973L63.6995 37.4945C66.3666 41.0638 69.0515 45.7058 69.074 50.7459L71.074 50.7369Z"
        fill="black" mask="url(#path-1-outside-1_619_3)" />
</svg>
