<svg width="20" height="20" viewBox="0 0 20 20" fill="none" xmlns="http://www.w3.org/2000/svg">
<g id="sos">
<mask id="mask0_1759_19237" style="mask-type:alpha" maskUnits="userSpaceOnUse" x="0" y="0" width="20" height="20">
<rect id="Bounding box" width="20" height="20" fill="#D9D9D9"/>
</mask>
<g mask="url(#mask0_1759_19237)">
<path id="sos_2" d="M8.87926 13.798C8.46366 13.798 8.1087 13.6509 7.81436 13.3565C7.52003 13.0622 7.37286 12.7073 7.37286 12.2917V7.70836C7.37286 7.29276 7.52003 6.9378 7.81436 6.64347C8.1087 6.34913 8.46366 6.20197 8.87926 6.20197H11.1228C11.5384 6.20197 11.8934 6.34913 12.1877 6.64347C12.4821 6.9378 12.6292 7.29276 12.6292 7.70836V12.2917C12.6292 12.7073 12.4821 13.0622 12.1877 13.3565C11.8934 13.6509 11.5384 13.798 11.1228 13.798H8.87926ZM1.36328 13.798V12.5481H4.27991C4.3547 12.5481 4.41614 12.524 4.46422 12.476C4.5123 12.4279 4.53634 12.3664 4.53634 12.2917V10.8814C4.53634 10.8066 4.5123 10.7452 4.46422 10.6971C4.41614 10.649 4.3547 10.625 4.27991 10.625H2.86968C2.45408 10.625 2.09911 10.4778 1.80478 10.1835C1.51045 9.88915 1.36328 9.53419 1.36328 9.11859V7.70836C1.36328 7.29276 1.51045 6.9378 1.80478 6.64347C2.09911 6.34913 2.45408 6.20197 2.86968 6.20197H5.7863V7.45192H2.86968C2.79489 7.45192 2.73345 7.47597 2.68536 7.52405C2.63728 7.57213 2.61324 7.63357 2.61324 7.70836V9.11859C2.61324 9.19338 2.63728 9.25482 2.68536 9.3029C2.73345 9.35099 2.79489 9.37503 2.86968 9.37503H4.27991C4.6955 9.37503 5.05047 9.5222 5.3448 9.81653C5.63914 10.1109 5.7863 10.4658 5.7863 10.8814V12.2917C5.7863 12.7073 5.63914 13.0622 5.3448 13.3565C5.05047 13.6509 4.6955 13.798 4.27991 13.798H1.36328ZM14.2158 13.798V12.5481H17.1324C17.2072 12.5481 17.2687 12.524 17.3167 12.476C17.3648 12.4279 17.3889 12.3664 17.3889 12.2917V10.8814C17.3889 10.8066 17.3648 10.7452 17.3167 10.6971C17.2687 10.649 17.2072 10.625 17.1324 10.625H15.7222C15.3066 10.625 14.9516 10.4778 14.6573 10.1835C14.363 9.88915 14.2158 9.53419 14.2158 9.11859V7.70836C14.2158 7.29276 14.363 6.9378 14.6573 6.64347C14.9516 6.34913 15.3066 6.20197 15.7222 6.20197H18.6388V7.45192H15.7222C15.6474 7.45192 15.586 7.47597 15.5379 7.52405C15.4898 7.57213 15.4658 7.63357 15.4658 7.70836V9.11859C15.4658 9.19338 15.4898 9.25482 15.5379 9.3029C15.586 9.35099 15.6474 9.37503 15.7222 9.37503H17.1324C17.548 9.37503 17.903 9.5222 18.1973 9.81653C18.4917 10.1109 18.6388 10.4658 18.6388 10.8814V12.2917C18.6388 12.7073 18.4917 13.0622 18.1973 13.3565C17.903 13.6509 17.548 13.798 17.1324 13.798H14.2158ZM8.87926 12.5481H11.1228C11.1976 12.5481 11.2591 12.524 11.3072 12.476C11.3552 12.4279 11.3793 12.3664 11.3793 12.2917V7.70836C11.3793 7.63357 11.3552 7.57213 11.3072 7.52405C11.2591 7.47597 11.1976 7.45192 11.1228 7.45192H8.87926C8.80447 7.45192 8.74303 7.47597 8.69495 7.52405C8.64688 7.57213 8.62284 7.63357 8.62284 7.70836V12.2917C8.62284 12.3664 8.64688 12.4279 8.69495 12.476C8.74303 12.524 8.80447 12.5481 8.87926 12.5481Z" fill="#F8E71D"/>
</g>
</g>
</svg>
