<svg width="18" height="19" viewBox="0 0 18 19" fill="none" xmlns="http://www.w3.org/2000/svg">
<g id="support_agent">
<mask id="mask0_788_759" style="mask-type:alpha" maskUnits="userSpaceOnUse" x="0" y="0" width="18" height="19">
<rect id="Bounding box" y="0.5" width="18" height="18" fill="#D9D9D9"/>
</mask>
<g mask="url(#mask0_788_759)">
<path id="support_agent_2" d="M8.25 16.25V14.75H14.25V9.425C14.25 7.9625 13.7406 6.72187 12.7219 5.70312C11.7031 4.68438 10.4625 4.175 9 4.175C7.5375 4.175 6.29688 4.68438 5.27812 5.70312C4.25937 6.72187 3.75 7.9625 3.75 9.425V14H3C2.5875 14 2.23438 13.8531 1.94063 13.5594C1.64688 13.2656 1.5 12.9125 1.5 12.5V11C1.5 10.7375 1.56563 10.4906 1.69688 10.2594C1.82812 10.0281 2.0125 9.84375 2.25 9.70625L2.30625 8.7125C2.40625 7.8625 2.65312 7.075 3.04688 6.35C3.44063 5.625 3.93437 4.99375 4.52812 4.45625C5.12188 3.91875 5.80313 3.5 6.57188 3.2C7.34063 2.9 8.15 2.75 9 2.75C9.85 2.75 10.6562 2.9 11.4188 3.2C12.1813 3.5 12.8625 3.91562 13.4625 4.44688C14.0625 4.97813 14.5563 5.60625 14.9438 6.33125C15.3313 7.05625 15.5813 7.84375 15.6938 8.69375L15.75 9.66875C15.9875 9.78125 16.1719 9.95 16.3031 10.175C16.4344 10.4 16.5 10.6375 16.5 10.8875V12.6125C16.5 12.8625 16.4344 13.1 16.3031 13.325C16.1719 13.55 15.9875 13.7188 15.75 13.8313V14.75C15.75 15.1625 15.6031 15.5156 15.3094 15.8094C15.0156 16.1031 14.6625 16.25 14.25 16.25H8.25ZM6.75 11C6.5375 11 6.35938 10.9281 6.21562 10.7844C6.07188 10.6406 6 10.4625 6 10.25C6 10.0375 6.07188 9.85938 6.21562 9.71563C6.35938 9.57188 6.5375 9.5 6.75 9.5C6.9625 9.5 7.14062 9.57188 7.28438 9.71563C7.42812 9.85938 7.5 10.0375 7.5 10.25C7.5 10.4625 7.42812 10.6406 7.28438 10.7844C7.14062 10.9281 6.9625 11 6.75 11ZM11.25 11C11.0375 11 10.8594 10.9281 10.7156 10.7844C10.5719 10.6406 10.5 10.4625 10.5 10.25C10.5 10.0375 10.5719 9.85938 10.7156 9.71563C10.8594 9.57188 11.0375 9.5 11.25 9.5C11.4625 9.5 11.6406 9.57188 11.7844 9.71563C11.9281 9.85938 12 10.0375 12 10.25C12 10.4625 11.9281 10.6406 11.7844 10.7844C11.6406 10.9281 11.4625 11 11.25 11ZM4.51875 9.8375C4.43125 8.5125 4.83125 7.375 5.71875 6.425C6.60625 5.475 7.7125 5 9.0375 5C10.15 5 11.1281 5.35312 11.9719 6.05937C12.8156 6.76562 13.325 7.66875 13.5 8.76875C12.3625 8.75625 11.3156 8.45 10.3594 7.85C9.40312 7.25 8.66875 6.4375 8.15625 5.4125C7.95625 6.4125 7.53438 7.30312 6.89062 8.08438C6.24687 8.86563 5.45625 9.45 4.51875 9.8375Z" fill="#1C1B1F"/>
</g>
</g>
</svg>
