<svg width="20" height="20" viewBox="0 0 20 20" fill="none" xmlns="http://www.w3.org/2000/svg">
<g id="assignment_add">
<mask id="mask0_877_1042" style="mask-type:alpha" maskUnits="userSpaceOnUse" x="0" y="0" width="20" height="20">
<rect id="Bounding box" width="20" height="20" fill="#D9D9D9"/>
</mask>
<g mask="url(#mask0_877_1042)">
<path id="assignment_add_2" d="M4.42439 17.0833C4.00879 17.0833 3.65382 16.9361 3.35949 16.6418C3.06514 16.3474 2.91797 15.9925 2.91797 15.5769V4.42308C2.91797 4.00749 3.06514 3.65252 3.35949 3.35819C3.65382 3.06384 4.00879 2.91667 4.42439 2.91667H8.13272C8.18507 2.45407 8.38698 2.06065 8.73847 1.7364C9.08997 1.41213 9.51091 1.25 10.0013 1.25C10.497 1.25 10.9206 1.41213 11.2721 1.7364C11.6236 2.06065 11.8228 2.45407 11.8698 2.91667H15.5782C15.9938 2.91667 16.3487 3.06384 16.6431 3.35819C16.9374 3.65252 17.0846 4.00749 17.0846 4.42308V9.69388C16.8795 9.60628 16.6741 9.53204 16.4684 9.47115C16.2628 9.41024 16.0515 9.36163 15.8346 9.32531V4.42308C15.8346 4.35897 15.8079 4.3002 15.7545 4.24677C15.7011 4.19336 15.6423 4.16665 15.5782 4.16665H4.42439C4.36027 4.16665 4.3015 4.19336 4.24807 4.24677C4.19466 4.3002 4.16795 4.35897 4.16795 4.42308V15.5769C4.16795 15.641 4.19466 15.6998 4.24807 15.7532C4.3015 15.8066 4.36027 15.8333 4.42439 15.8333H9.30578C9.33675 16.0641 9.38269 16.2823 9.44359 16.4879C9.50448 16.6936 9.57873 16.8921 9.66635 17.0833H4.42439ZM4.16795 15.8333V4.16665V9.32531V9.26281V15.8333ZM6.04297 13.8621H9.39072C9.42704 13.6453 9.48099 13.434 9.55257 13.2283C9.62416 13.0227 9.70215 12.8173 9.78655 12.6122H6.04297V13.8621ZM6.04297 10.625H11.3266C11.6856 10.3205 12.0686 10.0654 12.4756 9.85975C12.8827 9.6541 13.3186 9.508 13.7833 9.42146V9.375H6.04297V10.625ZM6.04297 7.38779H13.9596V6.13781H6.04297V7.38779ZM10.0013 3.62177C10.1818 3.62177 10.3311 3.56274 10.4492 3.44469C10.5673 3.32663 10.6263 3.17733 10.6263 2.99677C10.6263 2.81622 10.5673 2.66691 10.4492 2.54885C10.3311 2.4308 10.1818 2.37177 10.0013 2.37177C9.82073 2.37177 9.67142 2.4308 9.55337 2.54885C9.43531 2.66691 9.37628 2.81622 9.37628 2.99677C9.37628 3.17733 9.43531 3.32663 9.55337 3.44469C9.67142 3.56274 9.82073 3.62177 10.0013 3.62177ZM15.0013 18.798C13.9607 18.798 13.0756 18.4332 12.3458 17.7035C11.6161 16.9738 11.2513 16.0886 11.2513 15.0481C11.2513 14.0075 11.6161 13.1223 12.3458 12.3926C13.0756 11.6629 13.9607 11.2981 15.0013 11.2981C16.0419 11.2981 16.927 11.6629 17.6567 12.3926C18.3864 13.1223 18.7513 14.0075 18.7513 15.0481C18.7513 16.0886 18.3864 16.9738 17.6567 17.7035C16.927 18.4332 16.0419 18.798 15.0013 18.798ZM14.6327 17.5H15.3699V15.4166H17.4532V14.6795H15.3699V12.5961H14.6327V14.6795H12.5494V15.4166H14.6327V17.5Z" fill="#F8E71D"/>
</g>
</g>
</svg>
