<svg width="18" height="18" viewBox="0 0 18 18" fill="none" xmlns="http://www.w3.org/2000/svg">
<mask id="mask0_790_1395" style="mask-type:alpha" maskUnits="userSpaceOnUse" x="0" y="0" width="18" height="18">
<rect width="18" height="18" fill="#D9D9D9"/>
</mask>
<g mask="url(#mask0_790_1395)">
<path d="M3.75 15.75C3.3375 15.75 2.98438 15.6031 2.69063 15.3094C2.39688 15.0156 2.25 14.6625 2.25 14.25V3.75C2.25 3.3375 2.39688 2.98438 2.69063 2.69063C2.98438 2.39688 3.3375 2.25 3.75 2.25H14.25C14.6625 2.25 15.0156 2.39688 15.3094 2.69063C15.6031 2.98438 15.75 3.3375 15.75 3.75V5.625H14.25V3.75H3.75V14.25H14.25V12.375H15.75V14.25C15.75 14.6625 15.6031 15.0156 15.3094 15.3094C15.0156 15.6031 14.6625 15.75 14.25 15.75H3.75ZM9.75 12.75C9.3375 12.75 8.98438 12.6031 8.69063 12.3094C8.39688 12.0156 8.25 11.6625 8.25 11.25V6.75C8.25 6.3375 8.39688 5.98438 8.69063 5.69063C8.98438 5.39688 9.3375 5.25 9.75 5.25H15C15.4125 5.25 15.7656 5.39688 16.0594 5.69063C16.3531 5.98438 16.5 6.3375 16.5 6.75V11.25C16.5 11.6625 16.3531 12.0156 16.0594 12.3094C15.7656 12.6031 15.4125 12.75 15 12.75H9.75ZM15 11.25V6.75H9.75V11.25H15ZM12 10.125C12.3125 10.125 12.5781 10.0156 12.7969 9.79688C13.0156 9.57812 13.125 9.3125 13.125 9C13.125 8.6875 13.0156 8.42188 12.7969 8.20312C12.5781 7.98438 12.3125 7.875 12 7.875C11.6875 7.875 11.4219 7.98438 11.2031 8.20312C10.9844 8.42188 10.875 8.6875 10.875 9C10.875 9.3125 10.9844 9.57812 11.2031 9.79688C11.4219 10.0156 11.6875 10.125 12 10.125Z" fill="#64748B"/>
</g>
</svg>
