<svg width="20" height="20" viewBox="0 0 20 20" fill="none" xmlns="http://www.w3.org/2000/svg">
<g id="account_balance_wallet">
<mask id="mask0_874_941" style="mask-type:alpha" maskUnits="userSpaceOnUse" x="0" y="0" width="20" height="20">
<rect id="Bounding box" width="20" height="20" fill="#D9D9D9"/>
</mask>
<g mask="url(#mask0_874_941)">
<path id="account_balance_wallet_2" d="M4.42439 17.0836C4.00879 17.0836 3.65382 16.9364 3.35949 16.6421C3.06514 16.3478 2.91797 15.9928 2.91797 15.5772V4.42341C2.91797 4.00781 3.06514 3.65285 3.35949 3.35851C3.65382 3.06417 4.00879 2.91699 4.42439 2.91699H15.5782C15.9938 2.91699 16.3487 3.06417 16.6431 3.35851C16.9374 3.65285 17.0846 4.00781 17.0846 4.42341V6.69103H15.8346V4.42341C15.8346 4.34862 15.8106 4.28718 15.7625 4.2391C15.7144 4.19101 15.653 4.16697 15.5782 4.16697H4.42439C4.34959 4.16697 4.28816 4.19101 4.24007 4.2391C4.19199 4.28718 4.16795 4.34862 4.16795 4.42341V15.5772C4.16795 15.652 4.19199 15.7134 4.24007 15.7615C4.28816 15.8096 4.34959 15.8336 4.42439 15.8336H15.5782C15.653 15.8336 15.7144 15.8096 15.7625 15.7615C15.8106 15.7134 15.8346 15.652 15.8346 15.5772V13.3096H17.0846V15.5772C17.0846 15.9928 16.9374 16.3478 16.6431 16.6421C16.3487 16.9364 15.9938 17.0836 15.5782 17.0836H4.42439ZM11.0911 13.7503C10.6755 13.7503 10.3205 13.6031 10.0262 13.3088C9.73181 13.0144 9.58464 12.6595 9.58464 12.2439V7.75674C9.58464 7.34115 9.73181 6.98618 10.0262 6.69185C10.3205 6.3975 10.6755 6.25033 11.0911 6.25033H16.4115C16.8271 6.25033 17.1821 6.3975 17.4764 6.69185C17.7708 6.98618 17.9179 7.34115 17.9179 7.75674V12.2439C17.9179 12.6595 17.7708 13.0144 17.4764 13.3088C17.1821 13.6031 16.8271 13.7503 16.4115 13.7503H11.0911ZM16.4115 12.5003C16.4863 12.5003 16.5477 12.4763 16.5958 12.4282C16.6439 12.3801 16.6679 12.3187 16.6679 12.2439V7.75674C16.6679 7.68195 16.6439 7.62051 16.5958 7.57243C16.5477 7.52435 16.4863 7.50031 16.4115 7.50031H11.0911C11.0163 7.50031 10.9548 7.52435 10.9067 7.57243C10.8587 7.62051 10.8346 7.68195 10.8346 7.75674V12.2439C10.8346 12.3187 10.8587 12.3801 10.9067 12.4282C10.9548 12.4763 11.0163 12.5003 11.0911 12.5003H16.4115ZM13.3346 11.2503C13.6818 11.2503 13.977 11.1288 14.22 10.8857C14.4631 10.6427 14.5846 10.3475 14.5846 10.0003C14.5846 9.65308 14.4631 9.35794 14.22 9.11489C13.977 8.87183 13.6818 8.75031 13.3346 8.75031C12.9874 8.75031 12.6923 8.87183 12.4492 9.11489C12.2061 9.35794 12.0846 9.65308 12.0846 10.0003C12.0846 10.3475 12.2061 10.6427 12.4492 10.8857C12.6923 11.1288 12.9874 11.2503 13.3346 11.2503Z" fill="#F8E71D"/>
</g>
</g>
</svg>
