<svg width="14" height="14" viewBox="0 0 14 14" fill="none" xmlns="http://www.w3.org/2000/svg">
<g id="info">
<mask id="mask0_882_1063" style="mask-type:alpha" maskUnits="userSpaceOnUse" x="0" y="0" width="14" height="14">
<rect id="Bounding box" width="14" height="14" fill="#D9D9D9"/>
</mask>
<g mask="url(#mask0_882_1063)">
<path id="info_2" d="M6.41797 9.91699H7.58464V6.41699H6.41797V9.91699ZM7.0013 5.25033C7.16658 5.25033 7.30512 5.19442 7.41693 5.08262C7.52873 4.97081 7.58464 4.83227 7.58464 4.66699C7.58464 4.50171 7.52873 4.36317 7.41693 4.25137C7.30512 4.13956 7.16658 4.08366 7.0013 4.08366C6.83602 4.08366 6.69748 4.13956 6.58568 4.25137C6.47387 4.36317 6.41797 4.50171 6.41797 4.66699C6.41797 4.83227 6.47387 4.97081 6.58568 5.08262C6.69748 5.19442 6.83602 5.25033 7.0013 5.25033ZM7.0013 12.8337C6.19436 12.8337 5.43602 12.6805 4.7263 12.3743C4.01658 12.068 3.39922 11.6524 2.87422 11.1274C2.34922 10.6024 1.93359 9.98505 1.62734 9.27533C1.32109 8.5656 1.16797 7.80727 1.16797 7.00033C1.16797 6.19338 1.32109 5.43505 1.62734 4.72533C1.93359 4.0156 2.34922 3.39824 2.87422 2.87324C3.39922 2.34824 4.01658 1.93262 4.7263 1.62637C5.43602 1.32012 6.19436 1.16699 7.0013 1.16699C7.80825 1.16699 8.56658 1.32012 9.2763 1.62637C9.98602 1.93262 10.6034 2.34824 11.1284 2.87324C11.6534 3.39824 12.069 4.0156 12.3753 4.72533C12.6815 5.43505 12.8346 6.19338 12.8346 7.00033C12.8346 7.80727 12.6815 8.5656 12.3753 9.27533C12.069 9.98505 11.6534 10.6024 11.1284 11.1274C10.6034 11.6524 9.98602 12.068 9.2763 12.3743C8.56658 12.6805 7.80825 12.8337 7.0013 12.8337Z" fill="#3478DD"/>
</g>
</g>
</svg>
