<svg width="27" height="26" viewBox="0 0 27 26" fill="none" xmlns="http://www.w3.org/2000/svg">
<g id="person_pin_circle">
<mask id="mask0_884_1262" style="mask-type:alpha" maskUnits="userSpaceOnUse" x="0" y="0" width="27" height="26">
<rect id="Bounding box" x="1.2" y="0.7" width="24.6" height="24.6" fill="#F8E71D" stroke="black" stroke-width="1.4"/>
</mask>
<g mask="url(#mask0_884_1262)">
<path id="person_pin_circle_2" d="M18.7631 13.8922L19.0589 13.3802L18.6036 13.003C17.9064 12.4252 17.1203 11.9831 16.25 11.6766C15.7353 11.4952 15.2048 11.368 14.6592 11.294C14.9741 11.1537 15.2637 10.9524 15.5239 10.6922C16.0784 10.1376 16.3654 9.44995 16.3654 8.66699C16.3654 7.88403 16.0784 7.19634 15.5239 6.64181C14.9693 6.08728 14.2817 5.80033 13.4987 5.80033C12.7157 5.80033 12.028 6.08728 11.4735 6.64181C10.919 7.19634 10.632 7.88403 10.632 8.66699C10.632 9.44995 10.919 10.1376 11.4735 10.6922C11.7337 10.9524 12.0233 11.1537 12.3382 11.294C11.7926 11.368 11.2621 11.4952 10.7474 11.6766C9.87707 11.9831 9.09101 12.4252 8.39375 13.003L7.93846 13.3802L8.23426 13.8922C8.76307 14.8074 9.48757 15.5463 10.3983 16.1028C11.3276 16.6707 12.3671 16.9503 13.4987 16.9503C14.6303 16.9503 15.6698 16.6707 16.5991 16.1028C17.5098 15.5463 18.2343 14.8074 18.7631 13.8922ZM13.4987 22.9107C10.8487 20.6108 8.87822 18.4897 7.56492 16.5487C6.17637 14.4964 5.53203 12.6688 5.53203 11.0503C5.53203 8.50677 6.34259 6.54693 7.92015 5.09198C9.53803 3.59983 11.3879 2.86699 13.4987 2.86699C15.6095 2.86699 17.4594 3.59983 19.0772 5.09198C20.6548 6.54693 21.4654 8.50677 21.4654 11.0503C21.4654 12.6688 20.821 14.4964 19.4325 16.5487C18.1192 18.4897 16.1487 20.6108 13.4987 22.9107Z" fill="#F8E71D" stroke="black" stroke-width="1.4"/>
</g>
</g>
</svg>
