<svg width="27" height="26" viewBox="0 0 27 26" fill="none" xmlns="http://www.w3.org/2000/svg">
<g id="person_pin_circle">
<mask id="mask0_884_1097" style="mask-type:alpha" maskUnits="userSpaceOnUse" x="0" y="0" width="27" height="26">
<rect id="Bounding box" x="0.5" width="26" height="26" fill="#D9D9D9"/>
</mask>
<g mask="url(#mask0_884_1097)">
<path id="person_pin_circle_2" d="M13.4987 16.2503C14.5098 16.2503 15.4216 16.0021 16.2341 15.5055C17.0466 15.009 17.6876 14.3545 18.157 13.542C17.5251 13.0184 16.8119 12.6166 16.0174 12.3368C15.223 12.0569 14.3834 11.917 13.4987 11.917C12.614 11.917 11.7744 12.0569 10.9799 12.3368C10.1855 12.6166 9.47231 13.0184 8.84036 13.542C9.30981 14.3545 9.95078 15.009 10.7633 15.5055C11.5758 16.0021 12.4876 16.2503 13.4987 16.2503ZM13.4987 10.8337C14.0945 10.8337 14.6046 10.6215 15.0289 10.1972C15.4532 9.77289 15.6654 9.26283 15.6654 8.66699C15.6654 8.07116 15.4532 7.56109 15.0289 7.13678C14.6046 6.71248 14.0945 6.50033 13.4987 6.50033C12.9029 6.50033 12.3928 6.71248 11.9685 7.13678C11.5442 7.56109 11.332 8.07116 11.332 8.66699C11.332 9.26283 11.5442 9.77289 11.9685 10.1972C12.3928 10.6215 12.9029 10.8337 13.4987 10.8337ZM13.4987 20.9628C15.7015 18.9406 17.3355 17.1034 18.4008 15.4514C19.4661 13.7993 19.9987 12.3323 19.9987 11.0503C19.9987 9.08227 19.3713 7.47081 18.1164 6.21595C16.8615 4.96109 15.3223 4.33366 13.4987 4.33366C11.6751 4.33366 10.1359 4.96109 8.88099 6.21595C7.62613 7.47081 6.9987 9.08227 6.9987 11.0503C6.9987 12.3323 7.53134 13.7993 8.59661 15.4514C9.66189 17.1034 11.2959 18.9406 13.4987 20.9628ZM13.4987 23.8337C10.5918 21.36 8.42057 19.0625 6.98516 16.9409C5.54974 14.8194 4.83203 12.8559 4.83203 11.0503C4.83203 8.34199 5.70321 6.18435 7.44557 4.57741C9.18793 2.97046 11.2056 2.16699 13.4987 2.16699C15.7918 2.16699 17.8095 2.97046 19.5518 4.57741C21.2942 6.18435 22.1654 8.34199 22.1654 11.0503C22.1654 12.8559 21.4477 14.8194 20.0122 16.9409C18.5768 19.0625 16.4056 21.36 13.4987 23.8337Z" fill="#8E98A8"/>
</g>
</g>
</svg>
