<svg width="16" height="16" viewBox="0 0 16 16" fill="none" xmlns="http://www.w3.org/2000/svg">
<mask id="mask0_772_4323" style="mask-type:alpha" maskUnits="userSpaceOnUse" x="0" y="0" width="16" height="16">
<rect width="16" height="16" fill="#D9D9D9"/>
</mask>
<g mask="url(#mask0_772_4323)">
<path d="M7.9987 10.9833C9.0987 10.0944 9.92925 9.23887 10.4904 8.41665C11.0515 7.59442 11.332 6.8222 11.332 6.09998C11.332 5.47776 11.2181 4.9472 10.9904 4.50831C10.7626 4.06942 10.482 3.71387 10.1487 3.44165C9.81536 3.16942 9.45425 2.9722 9.06536 2.84998C8.67648 2.72776 8.32092 2.66665 7.9987 2.66665C7.67648 2.66665 7.32092 2.72776 6.93203 2.84998C6.54314 2.9722 6.18203 3.16942 5.8487 3.44165C5.51536 3.71387 5.23481 4.06942 5.00703 4.50831C4.77925 4.9472 4.66536 5.47776 4.66536 6.09998C4.66536 6.8222 4.94592 7.59442 5.50703 8.41665C6.06814 9.23887 6.8987 10.0944 7.9987 10.9833ZM7.9987 12.6666C6.43203 11.5111 5.26259 10.3889 4.49036 9.29998C3.71814 8.21109 3.33203 7.14442 3.33203 6.09998C3.33203 5.31109 3.4737 4.61942 3.75703 4.02498C4.04036 3.43054 4.40425 2.93331 4.8487 2.53331C5.29314 2.13331 5.79314 1.83331 6.3487 1.63331C6.90425 1.43331 7.45425 1.33331 7.9987 1.33331C8.54314 1.33331 9.09314 1.43331 9.6487 1.63331C10.2043 1.83331 10.7043 2.13331 11.1487 2.53331C11.5931 2.93331 11.957 3.43054 12.2404 4.02498C12.5237 4.61942 12.6654 5.31109 12.6654 6.09998C12.6654 7.14442 12.2793 8.21109 11.507 9.29998C10.7348 10.3889 9.56536 11.5111 7.9987 12.6666ZM7.9987 7.33331C8.36536 7.33331 8.67925 7.20276 8.94036 6.94165C9.20148 6.68054 9.33203 6.36665 9.33203 5.99998C9.33203 5.63331 9.20148 5.31942 8.94036 5.05831C8.67925 4.7972 8.36536 4.66665 7.9987 4.66665C7.63203 4.66665 7.31814 4.7972 7.05703 5.05831C6.79592 5.31942 6.66536 5.63331 6.66536 5.99998C6.66536 6.36665 6.79592 6.68054 7.05703 6.94165C7.31814 7.20276 7.63203 7.33331 7.9987 7.33331ZM3.33203 14.6666V13.3333H12.6654V14.6666H3.33203Z" fill="#1D2939"/>
</g>
</svg>
