<svg width="12" height="12" viewBox="0 0 12 12" fill="none" xmlns="http://www.w3.org/2000/svg">
<g id="supervised_user_circle">
<mask id="mask0_772_4278" style="mask-type:alpha" maskUnits="userSpaceOnUse" x="0" y="0" width="12" height="12">
<rect id="Bounding box" width="12" height="12" fill="#D9D9D9"/>
</mask>
<g mask="url(#mask0_772_4278)">
<path id="supervised_user_circle_2" d="M5.15 9.89999C5.525 9.14165 6.025 8.6354 6.65 8.38123C7.275 8.12707 7.80833 7.99998 8.25 7.99998C8.44167 7.99998 8.62917 8.01665 8.8125 8.04998C8.99583 8.08332 9.175 8.12498 9.35 8.17498C9.55 7.85832 9.70833 7.51665 9.825 7.14998C9.94167 6.78332 10 6.39998 10 5.99998C10 4.88332 9.6125 3.93748 8.8375 3.16248C8.0625 2.38748 7.11667 1.99998 6 1.99998C4.88333 1.99998 3.9375 2.38748 3.1625 3.16248C2.3875 3.93748 2 4.88332 2 5.99998C2 6.37498 2.04792 6.73332 2.14375 7.07499C2.23958 7.41665 2.38333 7.73332 2.575 8.02498C2.91667 7.85832 3.27083 7.72915 3.6375 7.63749C4.00417 7.54582 4.375 7.49998 4.75 7.49998C5.01667 7.49998 5.27292 7.5229 5.51875 7.56873C5.76458 7.61457 6.00833 7.67498 6.25 7.74998C6.05833 7.84998 5.87708 7.96665 5.70625 8.09998C5.53542 8.23332 5.375 8.37498 5.225 8.52498C5.125 8.50832 5.03958 8.49998 4.96875 8.49998H4.75C4.48333 8.49998 4.21875 8.52915 3.95625 8.58748C3.69375 8.64582 3.44167 8.73332 3.2 8.84998C3.46667 9.11665 3.76458 9.33957 4.09375 9.51873C4.42292 9.6979 4.775 9.82499 5.15 9.89999ZM6 11C5.30833 11 4.65833 10.8687 4.05 10.6062C3.44167 10.3437 2.9125 9.98748 2.4625 9.53749C2.0125 9.08749 1.65625 8.55832 1.39375 7.94999C1.13125 7.34165 1 6.69165 1 5.99998C1 5.30832 1.13125 4.65832 1.39375 4.04998C1.65625 3.44165 2.0125 2.91248 2.4625 2.46248C2.9125 2.01248 3.44167 1.65623 4.05 1.39373C4.65833 1.13123 5.30833 0.999985 6 0.999985C6.69167 0.999985 7.34167 1.13123 7.95 1.39373C8.55833 1.65623 9.0875 2.01248 9.5375 2.46248C9.9875 2.91248 10.3438 3.44165 10.6062 4.04998C10.8687 4.65832 11 5.30832 11 5.99998C11 6.69165 10.8687 7.34165 10.6062 7.94999C10.3438 8.55832 9.9875 9.08749 9.5375 9.53749C9.0875 9.98748 8.55833 10.3437 7.95 10.6062C7.34167 10.8687 6.69167 11 6 11ZM4.75 6.74998C4.26667 6.74998 3.85417 6.57915 3.5125 6.23748C3.17083 5.89582 3 5.48332 3 4.99998C3 4.51665 3.17083 4.10415 3.5125 3.76248C3.85417 3.42082 4.26667 3.24998 4.75 3.24998C5.23333 3.24998 5.64583 3.42082 5.9875 3.76248C6.32917 4.10415 6.5 4.51665 6.5 4.99998C6.5 5.48332 6.32917 5.89582 5.9875 6.23748C5.64583 6.57915 5.23333 6.74998 4.75 6.74998ZM4.75 5.74998C4.95833 5.74998 5.13542 5.67707 5.28125 5.53123C5.42708 5.3854 5.5 5.20832 5.5 4.99998C5.5 4.79165 5.42708 4.61457 5.28125 4.46873C5.13542 4.3229 4.95833 4.24998 4.75 4.24998C4.54167 4.24998 4.36458 4.3229 4.21875 4.46873C4.07292 4.61457 4 4.79165 4 4.99998C4 5.20832 4.07292 5.3854 4.21875 5.53123C4.36458 5.67707 4.54167 5.74998 4.75 5.74998ZM8.25 7.24998C7.9 7.24998 7.60417 7.12915 7.3625 6.88749C7.12083 6.64582 7 6.34998 7 5.99998C7 5.64998 7.12083 5.35415 7.3625 5.11248C7.60417 4.87082 7.9 4.74998 8.25 4.74998C8.6 4.74998 8.89583 4.87082 9.1375 5.11248C9.37917 5.35415 9.5 5.64998 9.5 5.99998C9.5 6.34998 9.37917 6.64582 9.1375 6.88749C8.89583 7.12915 8.6 7.24998 8.25 7.24998Z" fill="#64748B"/>
</g>
</g>
</svg>
